<?xml version="1.0" standalone="no"?>
<!DOCTYPE svg PUBLIC "-//W3C//DTD SVG 20010904//EN"
 "http://www.w3.org/TR/2001/REC-SVG-20010904/DTD/svg10.dtd">
<svg version="1.0" xmlns="http://www.w3.org/2000/svg"
 width="6182.000000pt" height="6181.000000pt" viewBox="0 0 6182.000000 6181.000000"
 preserveAspectRatio="xMidYMid meet">
<metadata>
Created by potrace 1.15, written by Peter Selinger 2001-2017
</metadata>
<g transform="translate(0.000000,6181.000000) scale(0.100000,-0.100000)"
fill="#000000" stroke="none">
<path d="M12870 47230 c0 -31 -47 -130 -62 -130 -14 0 -34 -34 -64 -105 -15
-36 -16 -137 -15 -1123 2 -1190 3 -1169 -58 -1297 -16 -33 -32 -76 -35 -95 -3
-19 -10 -57 -15 -85 -5 -27 -12 -115 -16 -195 -4 -80 -11 -160 -17 -178 -13
-42 -35 -64 -59 -57 -29 10 -41 -34 -44 -173 -2 -67 -7 -137 -10 -155 -9 -41
-49 -119 -72 -143 -14 -14 -19 -41 -24 -133 -7 -133 -11 -149 -48 -158 -14 -3
-43 -23 -63 -44 l-38 -38 -5 -106 c-6 -117 -15 -148 -50 -185 -34 -36 -52 -84
-60 -165 -10 -87 -28 -130 -61 -148 -28 -14 -74 -116 -74 -161 0 -35 -20 -94
-37 -111 -10 -10 -25 -14 -38 -11 -21 5 -23 1 -30 -42 -4 -26 -9 -64 -10 -86
-5 -55 -23 -96 -61 -136 -26 -28 -35 -48 -43 -100 -11 -67 -36 -113 -65 -118
-18 -4 -71 -54 -86 -82 -6 -10 -10 -48 -10 -84 0 -53 -4 -70 -20 -86 -11 -11
-24 -20 -29 -20 -13 0 -61 -85 -61 -107 0 -48 -22 -95 -54 -114 -39 -23 -86
-117 -86 -172 0 -27 -7 -41 -32 -62 -19 -16 -34 -23 -36 -16 -2 6 -10 11 -18
11 -9 0 -13 -3 -11 -7 2 -5 1 -39 -3 -76 -7 -64 -10 -71 -56 -117 -27 -28 -53
-50 -59 -50 -6 0 -10 -29 -11 -64 -1 -75 -23 -121 -55 -113 -12 3 -22 0 -26
-9 -3 -8 -12 -14 -20 -14 -8 0 -17 -9 -20 -20 -3 -11 -9 -20 -14 -20 -5 0 -9
-28 -9 -63 0 -79 -24 -163 -50 -177 -11 -6 -20 -17 -20 -26 0 -8 -9 -33 -21
-55 -11 -23 -24 -66 -29 -96 -11 -63 -33 -103 -62 -111 -29 -7 -64 -95 -73
-181 -9 -103 -47 -153 -75 -101 -6 11 -16 17 -26 13 -8 -3 -13 -8 -10 -11 9
-8 -14 -42 -29 -42 -21 0 -19 -16 4 -32 28 -20 37 -90 15 -128 -10 -16 -22
-30 -26 -30 -4 0 -14 -15 -21 -32 -8 -18 -25 -44 -39 -58 -23 -23 -25 -34 -27
-114 -2 -90 -20 -156 -41 -156 -7 0 -24 -13 -38 -28 -15 -16 -33 -31 -41 -33
-10 -4 -16 -34 -22 -110 -8 -109 -18 -143 -70 -231 -27 -45 -33 -67 -41 -152
-9 -110 -28 -156 -68 -167 -14 -4 -22 -7 -18 -8 4 -1 -5 -29 -19 -63 -19 -48
-27 -88 -31 -164 -3 -74 -9 -107 -22 -124 -22 -30 -48 -21 -56 20 -15 70 -57
4 -49 -75 3 -30 1 -52 -6 -56 -8 -5 -8 -17 1 -44 18 -55 8 -215 -14 -227 -9
-5 -16 -17 -16 -28 0 -10 -11 -31 -24 -47 -44 -53 -49 -73 -55 -232 -5 -106
-12 -164 -22 -182 -8 -15 -25 -46 -37 -69 -13 -23 -35 -53 -50 -66 -25 -24
-25 -25 -31 -232 -6 -172 -10 -213 -25 -242 -10 -19 -32 -75 -48 -125 -30 -87
-31 -98 -38 -330 -8 -256 -16 -305 -58 -350 -49 -53 -63 -158 -72 -535 -9
-360 -4 -2689 6 -2780 9 -89 40 -196 62 -218 41 -41 60 -141 65 -347 5 -204
13 -249 67 -355 16 -31 31 -76 34 -100 7 -60 19 -287 17 -327 -1 -29 1 -33 23
-33 15 0 30 -8 36 -20 6 -11 17 -20 24 -20 32 0 41 -33 47 -174 7 -167 7 -164
40 -196 15 -14 30 -35 33 -47 4 -13 13 -23 21 -23 8 0 17 -10 21 -22 11 -34 6
-169 -7 -185 -9 -10 -8 -13 0 -13 9 0 11 -17 8 -55 -2 -30 0 -55 4 -55 5 0 9
-7 9 -15 0 -8 7 -15 15 -15 8 0 15 9 15 21 0 29 18 59 35 59 24 0 42 -50 48
-131 6 -90 24 -129 82 -184 41 -38 43 -44 50 -110 6 -56 15 -84 47 -138 46
-79 66 -139 72 -220 4 -65 34 -107 93 -132 36 -15 53 -58 53 -140 0 -44 4 -53
30 -74 17 -13 30 -29 30 -36 0 -8 9 -17 21 -20 28 -9 39 -46 38 -123 0 -37 0
-71 1 -77 1 -5 2 -13 1 -17 -2 -15 14 -8 27 12 7 11 18 20 26 20 16 0 46 -32
46 -48 0 -26 55 -152 66 -152 7 0 26 -13 42 -29 22 -23 31 -42 34 -78 5 -45
32 -98 72 -138 28 -29 38 -55 43 -123 5 -62 19 -92 42 -92 5 0 14 -8 20 -17 5
-10 21 -17 38 -18 22 0 32 -8 45 -35 10 -19 18 -51 18 -70 0 -29 7 -40 40 -64
35 -26 64 -77 59 -102 -4 -21 27 -74 43 -74 25 0 61 -55 92 -142 21 -57 33
-78 45 -78 23 0 42 -23 74 -85 14 -27 42 -67 62 -88 43 -46 78 -122 70 -154
-3 -15 -1 -23 7 -23 7 0 20 -13 30 -29 9 -16 26 -31 39 -33 12 -2 25 -10 30
-18 4 -8 16 -32 26 -52 17 -37 69 -98 162 -195 26 -27 53 -69 67 -106 16 -39
42 -80 73 -112 26 -27 61 -72 76 -99 15 -28 42 -64 58 -81 17 -18 47 -63 67
-101 28 -51 44 -70 61 -72 28 -4 59 -29 59 -47 0 -7 19 -39 43 -71 23 -33 50
-70 59 -84 8 -14 38 -47 65 -75 38 -38 51 -60 56 -91 4 -23 14 -57 22 -77 13
-32 20 -37 49 -37 44 0 66 -26 66 -78 0 -69 20 -94 120 -152 31 -18 90 -83 90
-98 0 -6 9 -16 19 -22 26 -13 154 -14 146 0 -3 5 1 10 9 10 9 0 16 9 16 20 0
10 7 23 14 27 20 11 31 121 21 207 -5 54 -10 66 -25 66 -10 0 -21 7 -24 15 -4
12 -14 14 -40 10 -39 -8 -50 5 -64 72 -6 29 -18 44 -49 65 -45 31 -56 59 -68
181 -7 61 -9 67 -27 61 -12 -3 -27 1 -39 12 -19 17 -24 31 -53 164 -23 103
-34 127 -59 134 -34 8 -54 53 -62 136 -10 113 -22 148 -65 190 -43 42 -46 55
-55 220 -6 124 -5 120 -27 120 -10 0 -23 8 -29 18 -8 12 -20 17 -35 14 -35 -6
-52 43 -60 174 -6 103 -9 112 -42 163 -58 88 -73 169 -68 349 5 153 1 169 -30
137 -8 -8 -21 -12 -29 -9 -29 12 -43 70 -54 234 -12 183 -24 238 -70 331 -56
115 -61 141 -61 293 -1 238 -31 436 -66 436 -37 0 -43 62 -44 452 -1 196 -5
408 -10 470 -5 62 -10 138 -11 168 -1 35 -11 72 -26 100 -12 25 -23 49 -23 55
0 5 -11 23 -24 38 -25 29 -32 62 -55 248 -7 51 -11 326 -11 697 0 497 3 632
15 719 16 111 39 183 60 183 6 0 16 32 22 75 6 42 17 84 25 93 8 9 16 39 17
67 2 27 6 52 9 55 4 3 8 223 10 490 2 267 6 503 9 525 6 44 22 75 39 75 16 0
42 101 54 210 5 52 10 174 10 270 0 196 10 254 62 355 47 93 57 143 68 375 9
165 15 223 28 250 18 37 49 51 63 29 4 -7 10 -11 13 -8 3 3 8 101 10 217 l4
211 50 108 50 108 6 149 c5 101 12 158 22 177 15 31 33 36 51 18 9 -9 16 -2
29 30 9 22 20 41 25 41 5 0 9 9 9 20 0 11 4 20 9 20 6 0 10 8 10 18 -1 9 2 86
5 171 4 115 9 160 21 177 8 13 20 24 25 24 5 0 19 19 32 43 17 33 23 69 29
164 9 133 24 182 67 221 36 34 50 81 67 235 16 137 33 187 65 187 11 0 20 -4
20 -10 0 -5 6 -10 14 -10 12 0 14 23 14 123 -1 135 3 146 87 271 10 16 22 54
26 86 9 77 28 114 60 118 16 2 32 13 39 28 7 13 18 24 24 24 21 0 33 35 35
100 3 86 14 119 56 158 21 20 36 46 39 65 3 18 9 62 15 99 10 71 33 114 66
123 16 5 26 28 48 108 15 56 28 118 27 138 0 52 33 92 70 84 37 -8 41 7 34
109 -7 85 -1 109 37 151 10 11 34 37 53 58 l35 38 -3 97 c-1 63 2 109 11 130
11 30 16 33 41 27 26 -5 31 -2 42 25 7 16 16 30 21 30 5 0 9 7 9 15 0 8 4 15
8 15 5 0 10 26 12 58 1 31 3 73 4 92 2 19 3 52 4 73 2 29 10 46 32 67 39 37
60 102 75 237 13 118 28 157 68 172 28 11 51 102 66 253 5 53 17 110 26 128
17 33 46 51 53 32 6 -18 28 -14 30 6 1 9 1 51 0 92 -5 189 -2 224 20 268 13
23 27 42 32 42 6 0 10 5 10 12 0 7 14 27 32 45 l32 33 4 183 c4 192 12 230 48
235 14 2 28 18 40 45 10 23 21 44 24 47 18 14 23 65 29 275 7 224 8 232 35
290 57 121 64 173 76 540 8 242 13 305 32 383 12 51 29 100 38 110 9 9 16 19
17 22 0 3 6 46 14 95 10 64 14 202 14 485 0 399 -7 563 -25 585 -5 6 -7 15 -3
18 3 4 2 7 -4 7 -5 0 -24 42 -41 93 -30 88 -32 102 -41 327 -10 250 -18 290
-67 362 -34 48 -43 91 -45 213 -2 117 -9 148 -44 182 -14 14 -25 29 -25 33 0
4 -11 11 -25 14 -35 9 -43 36 -47 160 -1 61 -7 106 -13 106 -13 0 -55 50 -55
67 0 7 -9 13 -20 13 -46 0 -71 103 -39 162 17 29 20 48 8 48 -4 0 -6 7 -3 15
4 9 0 15 -8 15 -8 0 -20 -16 -27 -35 -7 -19 -17 -35 -23 -35 -16 0 -51 49 -80
115 -14 33 -36 65 -48 71 -22 12 -104 92 -111 109 -2 6 -30 32 -61 59 -31 27
-59 58 -62 70 -3 11 -22 38 -41 60 -29 31 -40 37 -62 33 -44 -8 -71 8 -79 48
l-6 35 -344 0 c-336 0 -344 0 -344 -20z"/>
<path d="M48020 47232 c0 -24 -41 -62 -66 -62 -19 0 -107 -29 -90 -30 6 0 -2
-12 -16 -27 -15 -16 -29 -39 -33 -53 -3 -14 -22 -36 -42 -50 -41 -29 -66 -53
-108 -104 -33 -39 -51 -45 -70 -19 -16 22 -31 10 -39 -32 -5 -22 -13 -35 -23
-35 -12 0 -13 -3 -4 -14 9 -11 8 -24 -5 -57 -22 -56 -28 -63 -61 -64 -15 0
-27 -6 -29 -15 -22 -101 -73 -223 -108 -253 -22 -20 -38 -70 -61 -190 -16 -83
-29 -115 -54 -134 -11 -8 -20 -8 -29 -1 -7 6 -15 8 -18 5 -3 -3 -9 -72 -14
-153 l-9 -149 -48 -95 -48 -95 -5 -235 c-5 -208 -8 -240 -25 -275 -13 -25 -28
-41 -41 -43 -17 -2 -23 -12 -28 -43 -4 -22 -14 -51 -22 -65 -25 -38 -35 -209
-36 -639 -1 -381 5 -520 23 -531 5 -3 9 -18 9 -34 0 -16 4 -40 10 -55 5 -14
12 -40 15 -58 4 -18 19 -45 35 -62 47 -50 52 -85 59 -435 l7 -325 32 -68 c49
-106 71 -216 73 -364 2 -294 6 -340 29 -304 4 8 15 11 24 8 32 -12 48 -79 62
-247 15 -188 27 -244 61 -281 44 -48 64 -121 72 -273 9 -157 23 -206 67 -228
36 -17 42 -44 45 -189 1 -67 6 -119 12 -119 5 0 7 -7 3 -15 -3 -8 -2 -15 2
-15 4 0 18 -18 32 -40 19 -31 27 -37 38 -28 37 31 71 -71 72 -212 0 -30 7 -67
15 -82 28 -52 40 -73 58 -100 21 -30 35 -118 38 -231 l2 -78 27 6 c44 10 69
-35 80 -144 9 -87 41 -194 61 -207 6 -3 24 -35 41 -70 26 -55 30 -72 26 -129
-2 -36 0 -65 4 -65 5 0 15 -18 24 -40 14 -35 19 -39 44 -34 39 8 50 -17 50
-118 0 -68 4 -92 24 -133 14 -27 27 -58 30 -69 5 -13 12 -17 30 -12 46 11 59
-17 70 -146 4 -47 11 -66 40 -101 19 -23 40 -56 46 -72 9 -24 25 -116 32 -192
1 -7 13 -13 27 -13 37 -1 59 -36 82 -133 12 -46 36 -107 55 -139 51 -83 64
-130 64 -223 0 -56 5 -93 16 -116 26 -52 34 -60 53 -49 43 22 62 -28 67 -177
4 -136 7 -145 86 -227 38 -40 46 -72 56 -206 8 -104 12 -120 42 -170 48 -82
51 -93 60 -240 11 -176 16 -204 43 -215 12 -6 35 -35 50 -67 25 -49 30 -74 37
-187 10 -147 18 -183 62 -278 30 -66 31 -73 38 -256 4 -122 11 -192 18 -199 7
-7 12 -23 12 -35 0 -23 26 -83 35 -83 3 0 15 6 26 13 17 10 23 9 38 -10 15
-18 19 -52 24 -251 7 -248 14 -286 72 -374 53 -80 57 -105 65 -388 l7 -265 36
-95 c46 -124 55 -214 62 -580 6 -328 24 -650 37 -650 4 0 8 -9 8 -20 0 -11 4
-28 10 -38 15 -29 48 -220 59 -349 14 -155 14 -1249 1 -1447 -11 -149 -34
-279 -70 -385 -10 -32 -22 -95 -25 -142 -3 -46 -8 -111 -10 -144 -3 -33 -7
-186 -10 -340 -8 -384 -18 -465 -79 -595 -18 -40 -21 -71 -26 -270 -7 -233
-11 -256 -55 -314 -13 -18 -36 -63 -50 -100 -23 -61 -26 -88 -32 -250 -4 -133
-10 -187 -21 -203 -16 -26 -37 -30 -46 -8 -9 26 -34 17 -41 -15 -4 -19 -13
-30 -23 -30 -15 0 -17 -15 -19 -113 0 -61 -2 -144 -2 -183 -2 -87 -13 -130
-45 -163 -29 -30 -40 -74 -61 -224 -16 -121 -39 -167 -81 -167 -17 0 -24 -6
-25 -20 -1 -11 -2 -23 -3 -27 -1 -5 -6 -46 -10 -93 -8 -85 -29 -179 -44 -189
-4 -3 -19 -24 -33 -46 -22 -32 -28 -57 -33 -125 -7 -93 -28 -136 -65 -134 -11
0 -21 -3 -21 -8 0 -5 -11 -26 -25 -46 -21 -30 -25 -49 -25 -104 0 -76 -23
-138 -51 -138 -10 0 -21 5 -24 10 -9 15 -22 12 -28 -7 -34 -113 -49 -173 -49
-198 1 -41 -23 -75 -52 -75 -26 0 -53 -45 -63 -106 -5 -32 -18 -47 -90 -105
-14 -10 -17 -41 -18 -154 0 -38 4 -73 9 -76 4 -4 3 -16 -3 -27 -21 -39 -15
-42 90 -42 92 0 104 2 120 22 11 11 19 32 19 45 0 27 44 73 70 73 10 0 29 9
43 20 14 11 30 20 36 20 6 0 10 3 9 8 0 4 1 14 5 22 3 8 7 39 10 69 5 60 13
68 77 77 l45 6 3 61 c3 63 22 107 45 107 19 0 90 79 122 135 15 28 39 66 54
85 14 19 35 52 46 75 13 23 34 46 52 55 18 8 37 26 43 40 18 40 81 128 96 134
7 3 22 22 33 43 10 21 46 60 80 86 59 45 61 49 61 92 0 40 5 50 51 96 27 28
66 75 85 104 18 30 40 58 47 62 17 11 67 86 67 102 0 17 30 74 44 83 6 4 19 5
28 2 19 -6 22 -1 53 96 21 64 47 102 81 121 13 7 24 21 24 32 0 21 92 113 121
122 12 4 19 23 24 63 9 71 16 84 82 151 38 39 53 62 53 82 0 39 19 77 42 85
18 5 78 116 78 143 0 6 7 23 16 37 13 19 24 24 48 22 38 -4 54 24 67 118 12
85 31 122 66 126 29 3 45 34 58 113 5 29 19 52 55 87 35 34 51 59 56 86 13 70
82 171 118 172 16 0 18 5 13 37 -9 56 11 119 49 155 42 40 62 81 75 155 18
104 41 128 78 82 16 -20 18 -20 34 -4 9 9 17 30 17 46 0 16 3 29 8 29 4 0 5
21 3 46 -3 43 7 92 30 152 7 17 15 22 41 20 l33 -3 1 55 c2 97 23 181 56 227
17 24 34 43 38 43 16 0 41 72 55 158 10 61 23 103 37 123 22 30 28 32 65 30
19 -2 21 1 13 35 -5 20 -6 77 -3 127 5 90 22 149 46 164 7 4 26 30 42 58 26
45 29 60 34 176 5 106 9 130 25 148 22 25 44 27 52 6 4 -8 11 -15 17 -15 6 0
7 3 4 6 -11 12 13 44 33 44 16 0 19 5 14 30 -4 17 -3 30 2 30 5 0 9 78 9 172
0 185 10 238 46 238 14 0 27 19 34 50 11 50 17 138 17 230 0 63 3 145 8 181
10 68 56 220 85 277 15 29 22 80 40 287 6 75 11 1997 6 2430 -6 451 -16 622
-41 693 -12 31 -37 102 -57 157 l-35 100 -4 205 c-3 173 -9 263 -20 303 -1 4
-2 14 -3 22 0 8 -10 23 -22 33 -46 38 -53 68 -56 242 -3 210 -11 290 -27 290
-7 0 -18 16 -26 35 -11 28 -17 34 -36 29 -18 -5 -26 1 -40 28 -14 26 -20 66
-24 188 l-6 155 -53 93 c-50 86 -54 99 -62 182 -5 48 -5 127 -1 174 8 85 2
102 -24 76 -7 -7 -20 0 -39 22 -32 36 -55 115 -55 195 0 72 -20 150 -45 177
-11 12 -35 45 -53 72 -30 47 -32 57 -32 140 0 49 -5 107 -11 129 -6 22 -11 46
-11 53 -1 9 -10 11 -28 7 -21 -5 -29 -2 -35 12 -18 44 -28 104 -29 172 -1 64
-4 78 -23 97 -13 13 -23 28 -23 33 0 6 -15 7 -34 4 -44 -7 -51 7 -61 117 -7
88 -13 102 -84 208 -33 50 -35 59 -39 147 -4 86 -6 94 -25 97 -12 2 -36 22
-54 46 -26 35 -33 53 -33 90 0 78 -24 146 -63 184 -60 59 -82 119 -82 225 1
66 -3 94 -12 97 -7 3 -17 -4 -23 -14 -32 -61 -76 21 -84 155 -5 94 -12 125
-28 125 -5 0 -6 5 -3 10 3 6 2 10 -4 10 -5 0 -13 -9 -16 -20 -3 -11 -14 -20
-24 -20 -27 0 -48 30 -54 80 -8 57 -41 127 -77 160 -24 22 -60 112 -60 149 0
6 -17 29 -38 50 -30 31 -44 58 -62 123 -21 70 -32 89 -67 122 -40 37 -56 67
-67 126 -11 60 -28 90 -50 90 -38 0 -59 34 -67 111 -4 38 -15 84 -23 101 -9
17 -16 37 -16 45 0 9 -7 12 -25 7 -37 -9 -61 17 -69 76 -8 58 -50 156 -72 164
-22 9 -41 63 -47 138 -6 71 -5 69 -90 158 -24 24 -31 44 -42 120 -11 76 -18
95 -39 113 -57 50 -96 133 -96 205 0 25 6 35 25 44 28 13 36 58 10 58 -8 0
-15 7 -15 15 0 9 -7 18 -15 21 -8 4 -12 10 -9 15 12 20 -8 7 -31 -18 -22 -26
-25 -27 -40 -12 -11 11 -20 46 -27 100 -10 89 -35 196 -51 217 -5 6 -18 12
-28 12 -36 0 -56 52 -62 166 -6 109 -19 151 -74 234 -12 20 -25 56 -28 80 -4
44 -17 250 -17 280 0 9 -12 24 -27 34 -73 50 -97 135 -105 378 -7 205 -6 198
-27 218 -31 29 -52 84 -52 137 0 29 -4 53 -8 53 -23 0 -27 119 -25 795 3 681
7 815 27 815 13 0 11 138 -2 142 -18 6 -27 84 -23 206 3 79 8 118 16 124 10 5
8 8 -4 8 -16 0 -17 9 -14 86 3 63 9 91 22 105 16 18 16 19 -4 19 -21 0 -28 18
-23 58 1 6 -3 12 -9 12 -6 0 -8 5 -5 10 3 6 0 10 -8 10 -7 0 -20 -11 -27 -25
-7 -14 -17 -25 -21 -25 -14 0 -45 54 -64 113 l-19 57 -328 0 c-311 0 -328 -1
-328 -18z"/>
<path d="M10130 46060 c-41 -5 -91 -13 -110 -19 -19 -6 -77 -11 -128 -11 -83
0 -96 -3 -132 -26 -22 -15 -40 -32 -40 -39 0 -23 -40 -48 -82 -50 -62 -3 -119
-16 -113 -25 3 -5 -1 -21 -9 -37 -7 -15 -20 -41 -27 -58 -8 -16 -29 -39 -46
-50 -17 -11 -41 -35 -54 -53 -13 -19 -34 -36 -50 -39 -36 -7 -50 -24 -89 -101
-17 -35 -38 -66 -46 -69 -8 -3 -28 -17 -43 -32 -16 -14 -35 -31 -43 -37 -10
-8 -15 -34 -17 -74 -2 -67 -12 -91 -65 -157 -34 -42 -39 -60 -52 -180 -7 -70
-32 -113 -67 -113 -18 0 -26 -12 -45 -62 -12 -35 -22 -83 -22 -108 0 -33 -7
-53 -25 -75 l-25 -30 -20 24 c-11 12 -17 27 -14 32 3 5 -2 9 -11 9 -9 0 -13
-4 -10 -10 3 -5 3 -10 -2 -10 -4 0 -9 -36 -9 -80 -2 -122 -9 -142 -64 -198
-46 -47 -51 -56 -59 -118 -8 -54 -18 -78 -53 -128 -23 -33 -50 -69 -58 -78 -9
-10 -17 -39 -19 -64 -3 -56 -23 -109 -54 -140 -37 -37 -67 -107 -67 -156 0
-57 -31 -102 -64 -94 -31 8 -54 -36 -66 -126 -5 -40 -10 -78 -10 -84 0 -24
-42 -56 -65 -50 -20 5 -25 1 -34 -27 -6 -17 -10 -58 -10 -90 1 -57 1 -57 -57
-113 -38 -36 -59 -64 -61 -82 -17 -151 -64 -240 -118 -226 -23 6 -26 4 -22
-12 26 -88 10 -164 -49 -236 -43 -51 -59 -87 -68 -156 -9 -67 -14 -80 -38 -93
-14 -7 -23 -7 -33 1 -18 15 -45 -9 -45 -39 0 -12 -4 -21 -10 -21 -6 0 -10 -29
-10 -66 0 -71 -20 -128 -51 -145 -13 -6 -19 -6 -19 1 0 5 -6 10 -13 10 -10 0
-14 -17 -16 -57 -3 -74 -18 -132 -41 -158 -10 -11 -25 -33 -34 -50 -9 -16 -27
-45 -41 -63 -13 -18 -26 -54 -30 -85 -11 -88 -26 -125 -72 -174 -23 -26 -43
-54 -44 -63 -5 -101 -20 -147 -54 -160 -34 -13 -75 -106 -75 -172 0 -46 -5
-62 -25 -85 l-25 -28 -19 25 -19 24 -22 -37 c-12 -20 -25 -37 -28 -37 -4 0 -5
-30 -4 -66 4 -61 0 -78 -28 -134 -4 -8 -18 -17 -31 -20 -27 -6 -28 -9 -39
-101 -9 -81 -29 -124 -85 -182 -35 -37 -45 -55 -49 -94 -11 -89 -26 -133 -63
-186 -20 -28 -40 -53 -45 -55 -4 -2 -8 -17 -8 -32 0 -68 -23 -130 -75 -205
-48 -69 -54 -85 -60 -144 -9 -98 -18 -115 -59 -108 -28 4 -37 0 -60 -26 -23
-26 -28 -42 -32 -101 -6 -94 -20 -135 -48 -142 -29 -7 -46 -59 -46 -136 0 -48
-5 -61 -36 -101 -24 -31 -44 -47 -59 -47 -20 0 -23 -6 -29 -64 -9 -92 -33
-163 -76 -231 -27 -42 -42 -79 -50 -125 -11 -66 -37 -140 -50 -140 -4 0 -22
-19 -40 -41 -29 -37 -34 -52 -40 -120 -8 -95 -30 -131 -62 -103 -10 10 -18 23
-18 31 0 7 -4 13 -9 13 -11 0 -41 -62 -41 -84 0 -9 -3 -16 -7 -16 -5 0 -8 -10
-9 -22 -3 -117 -33 -241 -59 -252 -14 -5 -25 -35 -50 -145 -19 -81 -47 -133
-82 -152 -26 -14 -41 -53 -49 -124 -8 -76 -23 -116 -60 -161 -26 -33 -35 -54
-40 -100 -9 -94 -22 -122 -64 -149 -48 -30 -68 -80 -76 -193 -4 -48 -11 -95
-16 -104 -9 -19 -43 -24 -53 -8 -10 16 -35 12 -35 -5 0 -15 -19 -55 -31 -65
-3 -3 -9 -44 -12 -92 -6 -86 -21 -133 -57 -173 -22 -25 -38 -78 -50 -173 -14
-106 -52 -182 -91 -182 -21 0 -24 -9 -39 -132 -8 -64 -8 -99 1 -132 6 -25 9
-80 7 -123 -6 -105 -32 -159 -127 -253 -126 -125 -124 -119 -129 -302 -4 -148
-3 -161 22 -238 28 -87 33 -171 15 -230 -14 -46 -32 -171 -34 -240 -1 -30 -16
-109 -33 -175 -110 -426 -187 -970 -222 -1560 -13 -222 -13 -928 0 -1170 28
-523 109 -1235 186 -1635 18 -98 18 -118 -5 -187 -11 -32 -22 -79 -25 -106 -3
-26 -21 -86 -41 -132 l-35 -85 0 -200 0 -200 23 0 c19 0 28 -11 47 -55 20 -48
26 -54 46 -49 39 10 47 -24 54 -225 5 -148 9 -186 22 -195 8 -6 22 -25 31 -43
10 -18 28 -44 42 -59 36 -39 54 -114 53 -216 0 -69 3 -93 18 -115 47 -72 66
-121 75 -197 19 -148 31 -196 51 -207 31 -17 66 -83 79 -150 6 -35 16 -88 21
-117 6 -34 20 -65 37 -85 43 -49 49 -67 52 -150 2 -42 7 -77 12 -77 7 0 5 -25
-9 -102 -5 -25 -3 -28 20 -28 14 0 26 -4 26 -10 0 -15 21 -12 42 7 32 29 49
-1 62 -114 12 -100 46 -186 70 -177 29 10 51 -30 61 -111 7 -51 14 -68 53
-112 40 -47 45 -60 52 -120 10 -87 21 -115 54 -132 36 -20 52 -48 81 -140 19
-60 35 -89 60 -113 33 -30 36 -40 45 -117 5 -46 7 -88 4 -92 -3 -5 1 -9 9 -9
7 0 20 -11 27 -25 14 -27 25 -31 35 -15 11 18 42 11 57 -12 8 -13 17 -48 21
-80 7 -69 44 -140 78 -148 17 -4 32 -22 53 -65 16 -32 35 -65 42 -73 24 -24
62 -95 75 -142 9 -32 29 -61 67 -98 29 -29 62 -72 72 -95 11 -24 30 -53 44
-66 16 -15 30 -44 38 -79 6 -30 22 -66 35 -80 13 -14 23 -31 23 -38 0 -9 9
-12 29 -8 22 5 32 1 50 -21 11 -15 21 -34 21 -41 0 -21 49 -88 76 -102 35 -18
56 -65 48 -107 -5 -31 -4 -35 14 -35 26 0 79 -61 107 -124 13 -28 35 -61 49
-73 14 -13 26 -27 26 -33 0 -5 7 -10 15 -10 26 0 148 -137 170 -193 18 -44 25
-52 48 -52 36 -1 63 -29 70 -71 6 -35 46 -88 142 -190 22 -23 54 -60 70 -81
32 -40 111 -118 169 -168 20 -16 36 -38 36 -47 0 -23 48 -78 68 -78 8 0 30
-15 48 -32 17 -18 45 -43 62 -55 16 -13 33 -34 36 -49 11 -41 36 -74 70 -88
17 -8 38 -22 48 -32 78 -88 209 -212 239 -226 28 -12 42 -28 58 -62 25 -58 43
-76 75 -76 29 0 84 -51 98 -92 8 -22 15 -27 29 -23 27 9 78 -21 85 -50 3 -14
9 -25 13 -25 3 0 24 -16 46 -35 22 -19 49 -35 61 -35 28 0 74 -37 74 -59 0
-24 34 -53 83 -71 30 -11 46 -25 57 -47 15 -32 46 -53 79 -53 25 0 69 -43 87
-85 8 -19 19 -35 25 -35 32 0 107 -45 132 -79 19 -24 43 -43 68 -51 48 -16 67
-37 99 -110 15 -33 28 -40 73 -40 32 0 45 -7 70 -36 18 -19 49 -45 70 -57 20
-11 37 -24 37 -29 0 -4 10 -8 23 -8 21 0 32 -9 91 -72 16 -18 35 -28 54 -28
33 0 54 -21 70 -67 10 -30 9 -33 -9 -33 -10 0 -19 -4 -19 -9 0 -5 25 -11 56
-13 41 -4 62 -11 80 -29 13 -13 33 -33 44 -43 11 -11 20 -28 20 -38 0 -10 7
-18 17 -18 9 0 30 -4 47 -10 17 -5 43 -12 57 -15 18 -3 32 -16 44 -42 25 -55
44 -73 77 -73 36 0 55 -12 125 -77 31 -29 63 -53 72 -53 25 -1 59 -32 79 -70
15 -32 22 -35 69 -40 64 -7 74 -16 75 -68 0 -23 7 -47 14 -53 8 -6 14 -18 14
-25 0 -8 7 -14 15 -14 8 0 15 7 15 15 0 25 43 17 91 -17 24 -18 46 -36 48 -41
9 -23 48 -47 74 -47 24 0 43 -14 95 -70 57 -62 69 -70 101 -70 43 0 81 -23 81
-49 0 -25 15 -36 85 -62 33 -12 67 -32 75 -43 31 -44 85 -86 112 -86 33 0 78
-19 78 -34 0 -6 3 -21 6 -33 5 -18 2 -23 -12 -24 -20 -1 -16 -3 43 -24 13 -4
20 -11 17 -16 -3 -5 6 -9 20 -9 14 0 26 -4 26 -10 0 -5 12 -10 26 -10 36 0 61
-16 79 -50 13 -26 21 -30 55 -30 48 0 90 -18 90 -39 1 -21 56 -81 74 -81 8 0
18 -4 21 -10 3 -5 20 -10 37 -10 25 0 41 -11 77 -50 25 -28 53 -50 62 -50 49
0 139 -58 139 -90 0 -29 37 -52 85 -56 26 -1 58 -10 72 -19 21 -14 24 -23 20
-50 -6 -35 7 -55 35 -55 10 0 23 -9 30 -20 7 -11 19 -20 26 -20 7 0 10 4 7 10
-9 15 29 12 61 -5 16 -8 40 -28 54 -43 23 -27 40 -34 125 -59 16 -5 35 -20 42
-33 30 -60 56 -80 113 -87 56 -6 100 -27 100 -46 0 -23 52 -55 98 -62 63 -9
92 -26 111 -66 18 -38 67 -67 128 -76 54 -8 76 -30 68 -69 -5 -29 -2 -34 25
-45 16 -8 30 -17 30 -21 0 -5 13 -8 28 -8 16 0 32 -3 36 -7 4 -4 22 -6 41 -4
30 2 37 -2 55 -31 11 -18 21 -36 22 -41 2 -4 38 -13 80 -21 81 -14 108 -27
108 -55 0 -35 52 -70 113 -77 49 -6 64 -13 98 -46 44 -43 75 -58 120 -58 46 0
86 -25 94 -59 3 -16 15 -37 25 -46 11 -10 17 -21 15 -25 -6 -10 90 -24 104
-15 6 3 27 -1 46 -11 25 -11 37 -26 43 -48 5 -19 18 -36 35 -44 15 -7 27 -17
27 -21 0 -5 17 -11 38 -14 110 -17 128 -24 143 -64 11 -29 42 -41 127 -51 64
-7 66 -8 88 -50 12 -23 20 -42 17 -42 -3 0 0 -6 6 -14 8 -9 39 -15 89 -18 91
-4 132 -22 152 -65 17 -36 34 -43 103 -43 62 0 102 -27 111 -73 3 -18 15 -43
26 -54 10 -12 16 -24 12 -28 -4 -4 32 -5 79 -1 74 6 89 4 107 -11 11 -10 22
-27 24 -38 4 -26 74 -61 138 -68 33 -4 65 -17 93 -36 23 -17 58 -42 77 -56 28
-19 53 -26 114 -31 75 -7 78 -8 102 -43 13 -20 24 -41 24 -47 0 -17 24 -24
109 -30 88 -7 128 -19 142 -46 16 -29 106 -65 168 -66 72 -1 108 -17 116 -50
7 -31 40 -72 77 -96 19 -12 46 -16 109 -15 105 2 122 -3 140 -44 19 -44 53
-57 162 -64 101 -6 171 -33 199 -75 21 -32 108 -58 194 -58 90 -1 154 -27 154
-65 0 -34 31 -45 128 -45 110 -1 212 -32 212 -65 0 -34 30 -45 119 -45 85 0
88 -1 109 -30 12 -16 22 -33 22 -38 0 -5 9 -20 20 -33 48 -59 48 -59 145 -59
98 0 128 -12 145 -56 12 -30 36 -40 135 -53 42 -6 83 -18 91 -26 9 -8 24 -20
35 -25 10 -6 19 -19 19 -30 0 -23 48 -40 116 -42 57 -1 99 -17 137 -53 32 -30
32 -34 10 -50 -13 -10 0 -13 73 -17 97 -6 140 -21 150 -50 9 -29 81 -61 136
-59 37 0 53 -5 78 -26 21 -17 30 -32 27 -45 -4 -13 4 -26 24 -40 16 -12 29
-27 29 -34 0 -9 29 -15 92 -20 87 -7 94 -9 127 -42 53 -51 70 -59 140 -67 70
-7 111 -28 111 -55 0 -10 7 -26 15 -34 18 -18 89 -40 123 -38 52 4 115 -54
107 -97 -4 -21 -1 -21 58 -15 47 5 72 2 102 -10 48 -20 75 -44 75 -65 0 -32
17 -41 85 -46 78 -5 121 -28 119 -65 0 -12 12 -35 28 -50 24 -24 40 -30 99
-36 63 -6 75 -11 105 -40 18 -19 37 -34 40 -34 4 0 16 -7 26 -17 11 -10 33
-16 57 -15 31 1 48 -6 90 -39 28 -22 51 -46 51 -53 0 -18 37 -34 95 -41 73 -9
102 -23 114 -56 10 -30 24 -38 101 -60 55 -15 96 -51 111 -96 l11 -33 67 0
c78 0 114 -20 124 -67 10 -51 41 -73 102 -73 64 0 99 -14 113 -45 10 -21 122
-75 156 -75 18 0 42 -30 50 -63 7 -31 29 -42 102 -52 78 -10 101 -23 108 -57
9 -44 8 -46 -16 -50 -12 -2 -23 -9 -26 -17 -5 -14 18 -13 131 5 35 6 41 3 77
-35 21 -23 44 -55 50 -72 11 -27 16 -29 64 -29 28 0 61 -3 74 -6 23 -7 62 -69
62 -98 0 -23 33 -36 73 -29 47 7 104 -13 125 -45 23 -37 41 -49 81 -56 42 -7
108 -51 117 -79 10 -33 31 -48 71 -53 58 -8 89 -23 103 -48 16 -30 5 -64 -22
-68 -12 -2 -23 -9 -26 -16 -3 -11 18 -13 109 -10 110 3 113 2 118 -20 3 -12
18 -37 33 -56 24 -30 35 -35 90 -41 68 -8 98 -26 98 -59 0 -41 43 -73 108 -81
70 -8 78 -12 100 -56 12 -23 25 -35 42 -37 81 -8 112 -33 134 -105 3 -9 14
-17 25 -17 11 0 23 -4 26 -10 3 -5 24 -10 47 -10 34 0 46 -6 74 -37 19 -20 36
-45 40 -55 3 -11 15 -18 30 -18 13 0 34 -6 46 -13 28 -16 86 -78 93 -99 7 -20
40 -33 73 -29 30 3 72 -24 72 -47 0 -22 39 -57 60 -54 42 6 132 -47 144 -85 4
-11 21 -26 39 -33 85 -31 147 -75 147 -104 0 -23 44 -49 87 -51 49 -1 47 0 76
-56 17 -34 29 -45 57 -52 53 -12 78 -27 84 -51 13 -45 77 -96 121 -96 33 0 85
-27 85 -44 0 -19 44 -56 67 -56 11 0 26 -7 33 -15 7 -8 17 -15 23 -15 9 0 60
-51 95 -94 8 -10 28 -16 56 -16 51 0 61 -10 71 -67 8 -49 16 -56 59 -55 45 2
78 -14 106 -54 14 -19 48 -46 76 -59 41 -20 59 -38 89 -85 32 -51 42 -60 67
-60 39 0 78 -22 106 -59 12 -17 29 -31 38 -31 28 0 73 -30 133 -90 40 -39 69
-60 84 -60 24 0 59 -31 70 -63 4 -10 0 -28 -8 -41 -15 -23 -15 -23 30 -24 51
0 109 -36 145 -89 12 -18 30 -33 40 -33 30 0 81 -31 139 -86 33 -32 65 -54 78
-54 14 0 35 -16 58 -44 20 -25 50 -49 68 -55 39 -14 77 -49 77 -71 0 -23 31
-49 72 -60 50 -14 68 -31 77 -73 8 -32 7 -37 -9 -37 -11 0 -22 -4 -25 -10 -4
-6 8 -10 28 -10 40 0 51 -8 36 -27 -9 -10 -7 -13 9 -13 11 0 22 5 24 11 8 23
87 -8 139 -55 28 -25 57 -46 65 -46 8 0 22 -13 32 -28 22 -37 95 -102 114
-102 16 0 50 -33 67 -67 6 -11 31 -31 55 -43 49 -23 61 -35 85 -83 10 -20 27
-35 46 -41 69 -20 84 -29 89 -51 3 -13 8 -30 12 -38 3 -9 -3 -17 -18 -22 -19
-6 -12 -9 35 -17 50 -9 65 -18 115 -64 31 -30 63 -54 72 -54 17 0 60 -27 72
-44 42 -62 88 -108 118 -117 19 -7 51 -26 69 -43 76 -68 121 -117 121 -131 0
-9 10 -15 25 -15 30 0 65 -36 65 -67 l0 -23 195 0 195 0 0 30 c0 17 0 31 -1
33 0 1 5 16 11 32 7 17 16 92 21 167 4 76 13 147 19 158 11 21 44 27 55 10 12
-19 35 -10 41 18 4 15 11 32 18 37 7 6 11 53 11 130 0 147 16 223 55 265 36
39 47 92 58 290 7 142 8 146 40 193 19 27 41 47 51 47 25 0 29 25 31 219 1
199 18 299 68 401 l37 75 6 255 c4 215 8 262 23 298 10 23 26 48 36 55 9 6 27
35 40 62 29 65 39 242 39 705 1 263 4 354 17 422 11 60 20 88 30 88 7 0 16
-11 20 -25 6 -23 32 -36 35 -17 1 4 4 18 7 32 6 30 10 134 11 328 1 118 3 142
16 142 12 0 14 12 9 68 -3 37 -10 69 -14 72 -5 3 -11 183 -13 400 -2 217 -8
413 -11 435 -4 22 -8 48 -9 58 -2 29 -23 19 -34 -15 -9 -33 -9 -33 -22 -10
-32 60 -41 170 -41 520 0 487 -18 639 -81 705 -47 49 -53 79 -59 322 l-5 230
-34 70 c-54 115 -62 149 -70 330 -9 193 -10 195 -33 213 -26 19 -74 93 -82
127 -5 17 -11 83 -16 147 -7 110 -10 122 -49 200 -22 46 -41 90 -41 98 0 8 -6
32 -14 53 -7 21 -12 52 -10 70 1 18 -2 70 -8 117 -6 47 -11 91 -11 98 0 6 -4
12 -8 12 -4 0 -5 9 -2 20 9 34 -12 22 -22 -12 -8 -26 -15 -33 -35 -33 -33 0
-49 45 -49 144 -1 60 -6 84 -28 127 -15 29 -30 51 -34 48 -31 -19 -64 51 -74
157 -6 67 -34 135 -79 196 -25 34 -34 79 -38 176 -1 47 -4 57 -19 57 -10 0
-32 13 -49 30 -17 16 -35 30 -40 30 -9 0 -13 24 -25 142 -6 53 -9 59 -39 73
-38 18 -61 70 -51 115 4 20 3 30 -5 30 -7 0 -10 13 -8 32 2 18 -2 38 -9 43 -7
6 -14 23 -16 39 -4 36 -26 46 -34 17 -13 -51 -73 -5 -73 56 0 38 -39 162 -51
164 -5 1 -13 3 -19 4 -5 1 -15 3 -20 4 -16 2 -50 63 -50 89 0 30 -23 75 -70
137 -21 28 -48 75 -61 105 -30 69 -69 130 -85 130 -6 0 -16 12 -22 27 -15 38
-31 103 -26 103 2 0 -16 20 -42 45 -25 25 -49 45 -54 45 -18 0 -33 74 -22 113
7 24 7 37 1 37 -6 0 -7 5 -4 10 3 6 2 10 -4 10 -5 0 -12 -9 -16 -19 -3 -11
-13 -22 -23 -26 -21 -8 -62 37 -62 68 0 35 -51 127 -70 127 -20 0 -38 20 -74
83 -15 26 -44 64 -66 86 -26 26 -41 50 -45 77 -10 57 -13 64 -32 71 -63 22
-132 113 -125 164 2 9 -9 24 -23 33 -14 9 -25 23 -25 31 0 9 -9 15 -24 15 -29
0 -45 18 -48 53 -2 21 -6 25 -24 21 -15 -4 -28 3 -48 26 -14 17 -26 37 -26 44
0 7 -9 21 -20 31 -11 10 -20 23 -20 29 0 7 -15 16 -32 21 -21 6 -39 21 -48 40
-30 60 -62 105 -74 105 -17 0 -49 36 -75 85 -42 78 -56 100 -64 104 -16 6 -57
56 -57 68 0 7 -7 13 -15 13 -8 0 -24 18 -35 40 -11 22 -27 40 -35 40 -8 0 -42
27 -76 59 -33 33 -67 62 -74 65 -7 2 -37 33 -66 68 -29 35 -65 71 -80 80 -15
9 -35 30 -45 47 -11 18 -40 42 -71 58 -66 33 -80 49 -66 71 12 20 6 42 -11 42
-15 0 -46 36 -38 45 4 4 -22 6 -58 5 -99 -2 -99 -2 -114 33 -14 34 -29 43
-111 66 -43 12 -80 40 -107 82 -11 18 -38 33 -85 49 -68 23 -113 54 -113 78 0
8 10 22 23 33 l22 18 -30 0 c-16 0 -47 -4 -69 -8 -50 -12 -80 0 -95 38 -16 38
-46 57 -118 76 -69 18 -72 21 -80 71 -3 21 -16 51 -27 66 -19 24 -27 27 -88
27 l-68 1 -25 40 c-14 22 -32 40 -40 40 -58 0 -175 77 -175 115 0 16 -22 25
-60 25 -43 0 -95 26 -127 64 -15 19 -49 44 -75 55 -32 13 -55 32 -71 58 -34
53 -51 65 -97 67 -45 3 -82 31 -85 65 -1 21 -65 71 -91 71 -22 0 -75 29 -109
59 -16 15 -50 35 -75 45 -81 33 -89 38 -104 77 -16 39 -41 59 -73 59 -32 0
-101 38 -120 66 -35 50 -53 64 -84 64 -42 0 -66 15 -74 47 -8 34 -34 52 -110
78 -50 17 -62 25 -70 50 -15 44 -56 95 -77 95 -33 0 -97 32 -113 56 -8 13 -25
24 -38 24 -12 0 -31 7 -41 15 -11 8 -29 15 -41 15 -24 0 -55 31 -72 71 -8 19
-25 32 -60 43 -30 10 -65 32 -89 57 -21 22 -59 50 -84 62 -59 28 -80 46 -80
69 0 10 -4 18 -9 18 -6 0 -16 12 -23 28 -12 24 -19 27 -61 27 -50 0 -77 19
-77 55 0 23 -56 80 -79 80 -39 0 -87 24 -122 60 -24 25 -47 39 -75 43 -31 5
-48 17 -82 57 -23 27 -64 62 -90 77 -26 14 -65 41 -87 58 -22 18 -59 42 -82
53 -45 23 -73 56 -73 85 0 22 -47 70 -60 62 -6 -4 -28 -4 -49 0 -31 5 -42 14
-57 41 -10 19 -22 34 -26 34 -4 0 -23 14 -41 30 -19 17 -39 30 -45 30 -16 0
-72 50 -72 65 0 21 -29 39 -73 44 -31 5 -44 12 -53 31 -38 85 -39 85 -74 88
-50 4 -87 21 -104 47 -9 13 -36 33 -62 44 -50 23 -83 56 -84 85 0 30 -64 86
-98 86 -36 0 -58 16 -80 59 -17 36 -50 59 -112 80 -19 6 -57 32 -84 56 -28 25
-58 45 -69 45 -10 0 -41 25 -70 55 -28 30 -57 55 -64 55 -13 0 -44 30 -82 80
-13 17 -42 40 -63 51 -36 18 -62 54 -51 72 2 4 -1 7 -7 7 -6 0 -20 16 -31 35
-19 31 -25 35 -65 35 -24 0 -48 6 -54 13 -5 6 -19 24 -30 38 -11 15 -33 29
-50 32 -19 4 -57 33 -103 77 -39 39 -83 73 -97 76 -42 9 -54 19 -66 55 -10 27
-9 37 2 50 13 15 9 17 -45 23 -52 6 -64 11 -86 39 -41 52 -59 69 -82 78 -12 4
-30 21 -40 36 -48 76 -76 103 -108 103 -36 0 -50 10 -89 63 -15 20 -35 37 -44
37 -15 0 -97 67 -204 166 -33 30 -38 74 -9 74 10 0 25 7 32 16 12 15 6 16 -70
13 l-84 -4 -27 50 c-24 44 -31 51 -66 55 -32 4 -42 11 -56 40 -26 51 -73 96
-221 206 -23 17 -52 51 -66 77 -19 37 -31 49 -60 58 -52 15 -66 29 -93 84 -18
38 -30 51 -55 57 -22 6 -46 26 -75 63 -23 30 -50 55 -59 55 -18 0 -69 37 -69
50 0 25 -55 88 -80 94 -16 3 -49 26 -74 51 -25 25 -52 45 -59 45 -19 0 -63 51
-71 82 -9 39 -34 61 -64 53 -32 -8 -53 12 -87 81 -15 30 -33 54 -40 54 -8 0
-42 29 -77 65 -34 36 -67 65 -75 65 -7 0 -20 12 -30 28 -34 54 -85 112 -99
112 -20 0 -154 138 -154 159 0 10 -9 30 -21 45 -16 20 -26 25 -45 20 -27 -7
-64 18 -64 43 0 25 -27 67 -74 113 -25 25 -46 51 -46 57 0 7 -11 15 -25 19
-33 8 -77 60 -101 117 -11 28 -28 50 -40 54 -45 16 -124 95 -149 149 -16 34
-35 58 -49 64 -37 14 -145 121 -151 150 -3 14 -18 38 -33 52 -108 104 -198
201 -226 243 -18 28 -46 61 -61 75 -15 14 -37 48 -50 77 -13 30 -32 54 -43 57
-12 4 -30 26 -42 49 -51 98 -67 122 -86 125 -21 4 -67 50 -105 104 -12 18 -39
50 -59 71 -21 21 -47 64 -60 95 -12 32 -35 68 -50 82 -15 14 -36 48 -46 75
-22 61 -80 135 -105 135 -11 0 -29 17 -45 43 -14 23 -41 58 -59 77 -23 24 -36
52 -44 88 -16 77 -37 112 -66 112 -29 0 -60 41 -69 94 -8 44 -28 79 -66 118
-15 15 -35 49 -44 75 -10 27 -22 55 -27 63 -5 8 -17 28 -27 43 -9 15 -27 30
-40 33 -32 9 -42 34 -42 107 l0 65 -52 42 c-29 23 -58 52 -65 64 -13 25 -21
195 -10 214 5 7 3 12 -7 12 -8 0 -17 -13 -21 -30 -15 -67 -68 -9 -84 92 -6 35
-19 89 -30 120 -11 31 -17 59 -14 62 4 3 -5 6 -20 6 -43 0 -63 42 -72 145 -5
69 -14 104 -37 153 -17 34 -34 62 -38 62 -5 0 -15 21 -24 47 -12 34 -16 85
-16 195 0 157 -13 234 -42 256 -10 7 -18 18 -18 24 0 7 -15 25 -34 42 -26 24
-35 42 -40 81 -4 28 -12 63 -19 80 -12 30 -54 74 -72 75 -10 0 -55 49 -55 60
0 5 -8 11 -17 15 -29 13 -224 15 -276 3 -40 -9 -51 -16 -66 -47 -11 -20 -45
-59 -78 -87 -49 -43 -61 -60 -72 -103 -14 -54 -36 -88 -61 -93 -8 -2 -23 -16
-33 -32 -10 -15 -26 -30 -36 -33 -16 -4 -19 -19 -23 -116 -5 -122 -17 -160
-50 -155 -16 2 -24 -7 -39 -42 -10 -25 -18 -57 -18 -72 -1 -14 -6 -28 -13 -30
-8 -3 -12 -53 -14 -164 -10 -477 -14 -585 -33 -754 -12 -102 -26 -214 -32
-250 -18 -108 1 -612 30 -805 23 -157 31 -327 34 -748 1 -174 6 -260 13 -265
6 -4 13 -23 17 -43 6 -38 46 -134 47 -111 0 25 40 -13 50 -48 5 -19 9 -138 9
-265 0 -151 4 -231 11 -233 5 -2 10 -12 10 -23 0 -10 5 -19 10 -19 6 0 17 -13
23 -29 7 -16 24 -39 38 -50 38 -30 53 -110 51 -271 -2 -106 -7 -143 -22 -177
-10 -24 -15 -43 -9 -43 5 0 9 -13 9 -30 0 -48 17 -34 24 20 12 91 20 95 61 30
24 -39 45 -148 45 -239 0 -64 24 -140 49 -158 43 -30 65 -94 85 -248 6 -50 42
-135 56 -135 19 0 37 -62 43 -145 9 -126 19 -195 28 -195 5 0 16 -14 24 -30
13 -26 19 -29 35 -20 15 8 24 6 40 -10 17 -17 20 -32 19 -103 -1 -82 7 -137
20 -137 4 0 12 -13 18 -30 6 -16 22 -34 35 -39 49 -19 78 -82 78 -171 0 -37 6
-50 34 -80 35 -36 66 -117 66 -174 0 -48 21 -94 46 -100 29 -8 60 -58 74 -120
16 -74 37 -116 75 -153 32 -31 35 -39 36 -96 0 -54 5 -68 33 -107 26 -36 38
-44 59 -42 35 4 53 -27 61 -107 7 -74 36 -129 76 -142 29 -10 60 -64 60 -102
0 -20 51 -113 69 -127 4 -3 20 -34 35 -70 16 -36 42 -78 58 -95 16 -16 35 -43
43 -60 7 -16 25 -56 39 -88 14 -33 37 -68 50 -78 27 -21 70 -102 64 -121 -3
-7 3 -20 11 -30 9 -10 19 -28 22 -41 4 -18 11 -21 37 -19 25 3 33 -2 45 -25 8
-15 17 -43 20 -61 8 -40 38 -81 75 -103 16 -9 33 -33 42 -57 8 -22 31 -58 51
-80 37 -39 72 -105 84 -161 4 -17 11 -31 16 -31 5 0 23 -13 41 -30 17 -16 37
-30 45 -30 22 0 54 -61 49 -92 -4 -21 -1 -27 16 -30 22 -3 26 -8 57 -75 12
-28 15 -43 8 -43 -9 0 -9 -2 0 -8 7 -4 19 -24 28 -45 13 -33 18 -36 44 -31 22
5 32 1 50 -21 11 -15 21 -32 21 -37 0 -20 54 -88 70 -88 17 0 70 -52 70 -68 0
-4 18 -27 41 -52 60 -65 79 -95 79 -122 0 -16 9 -29 24 -38 14 -7 43 -38 65
-69 22 -31 52 -67 65 -81 13 -14 31 -39 40 -57 17 -34 85 -103 102 -103 15 0
55 -46 93 -107 18 -29 41 -55 51 -58 36 -11 158 -152 170 -194 6 -23 15 -41
20 -41 4 0 21 -11 37 -24 15 -13 37 -25 48 -27 11 -3 27 -18 35 -34 22 -43
151 -171 180 -178 16 -4 41 -30 68 -71 26 -38 52 -66 66 -70 13 -3 31 -18 42
-33 10 -15 43 -51 72 -79 28 -29 52 -59 52 -67 0 -17 66 -79 104 -98 16 -8 34
-23 40 -33 6 -11 29 -35 51 -55 22 -20 56 -52 75 -71 19 -20 48 -42 64 -50 31
-16 96 -94 96 -115 0 -7 12 -17 28 -23 26 -9 192 -161 192 -176 0 -21 75 -84
120 -100 27 -10 50 -22 50 -27 0 -17 105 -109 125 -109 10 0 40 -22 65 -48 27
-28 59 -51 76 -55 18 -3 36 -17 48 -38 19 -32 19 -32 -2 -48 -16 -12 -19 -20
-11 -31 8 -11 12 -12 16 -2 6 14 39 16 48 2 3 -5 17 -10 29 -10 22 0 76 -55
76 -78 0 -16 34 -40 66 -46 21 -5 42 -22 66 -54 29 -40 45 -51 94 -67 33 -11
66 -24 74 -31 8 -6 36 -24 63 -39 69 -40 56 -64 -16 -30 -25 11 -178 45 -203
45 -3 0 -9 11 -14 24 -19 50 -52 61 -200 64 -173 3 -264 26 -281 69 -13 35
-51 45 -204 50 -117 5 -146 9 -178 26 -22 13 -35 26 -32 34 3 7 8 20 11 28 4
10 0 15 -12 15 -20 1 -65 29 -48 31 39 5 -163 28 -247 28 -107 1 -129 8 -129
42 0 33 -44 48 -172 58 -87 7 -135 16 -163 30 -42 20 -85 56 -85 70 0 12 -42
19 -178 32 -64 6 -124 15 -134 20 -10 5 -25 25 -33 44 -7 19 -20 36 -27 37 -7
0 7 4 32 8 26 5 3 6 -55 3 -146 -8 -204 6 -271 63 -60 51 -96 62 -209 64 -33
0 -65 4 -71 8 -7 4 -17 26 -23 48 -6 23 -18 47 -26 54 -8 7 -12 16 -9 21 3 5
-1 9 -8 9 -190 5 -308 29 -308 65 0 18 -39 32 -126 45 -105 15 -126 24 -160
70 -16 22 -36 40 -46 40 -9 0 -18 4 -20 10 -2 5 -42 13 -90 16 -81 6 -90 9
-125 41 -31 29 -35 37 -26 53 11 17 7 18 -80 16 -100 -1 -143 14 -163 57 -16
37 -82 67 -147 67 -75 0 -117 21 -117 58 0 15 -7 37 -15 49 -19 27 -105 53
-173 53 -47 0 -53 3 -84 40 -29 36 -40 41 -98 51 -36 6 -75 13 -87 15 -14 3
-29 17 -37 37 -30 65 -60 82 -161 91 -56 4 -63 8 -101 50 -30 35 -47 46 -70
46 -66 0 -102 19 -146 78 -43 56 -45 57 -103 62 -74 7 -105 23 -105 55 0 27
-20 76 -35 87 -5 4 -43 8 -83 8 -70 0 -74 1 -105 34 -35 38 -94 66 -137 66
-27 0 -60 26 -60 48 0 6 -5 22 -11 35 -11 24 -72 47 -127 47 -38 0 -72 26 -72
55 0 13 -7 31 -16 39 -14 15 -12 16 20 16 25 0 36 4 36 15 0 11 -11 15 -40 15
-28 0 -40 -4 -40 -14 0 -17 -22 -26 -61 -26 -28 0 -78 40 -79 64 0 5 -16 29
-36 52 -29 36 -40 43 -60 38 -44 -11 -70 3 -88 48 -20 52 -71 88 -125 88 -35
0 -71 23 -71 44 0 13 -44 45 -62 46 -27 0 -79 32 -114 70 -69 73 -78 80 -106
80 -19 0 -38 10 -54 27 -14 16 -49 42 -77 59 -30 17 -58 43 -66 60 -19 41 -61
84 -82 84 -30 0 -87 40 -97 68 -16 43 -69 94 -95 91 -36 -4 -64 10 -91 46 -14
18 -38 36 -53 40 -28 6 -73 37 -73 50 0 15 -56 75 -71 75 -19 0 -69 44 -69 60
0 7 -9 25 -21 41 -15 22 -26 28 -40 24 -29 -10 -66 19 -73 57 -9 45 -49 88
-81 88 -14 0 -36 11 -48 24 -113 121 -209 216 -221 216 -15 0 -52 45 -75 91
-7 14 -26 34 -42 43 -17 10 -40 33 -52 52 -14 22 -28 32 -38 29 -23 -8 -65 30
-72 63 -9 45 -49 101 -73 102 -13 0 -48 32 -100 92 -43 50 -104 116 -135 147
-52 52 -78 95 -65 108 11 11 -24 33 -54 33 -26 0 -33 6 -46 37 -9 20 -13 49
-10 65 4 20 1 28 -8 28 -7 0 -19 14 -26 30 -10 23 -19 30 -41 30 -19 0 -32 7
-40 23 -28 52 -82 127 -92 127 -7 0 -30 26 -52 57 -22 31 -51 67 -65 80 -14
13 -33 31 -42 40 -11 10 -18 31 -18 55 0 31 -7 46 -36 75 -20 20 -43 50 -50
67 -32 68 -71 121 -92 124 -28 4 -58 47 -65 95 -3 21 -15 58 -27 81 -17 37
-24 42 -45 39 -19 -4 -28 2 -44 28 -12 19 -21 42 -21 52 0 10 -18 42 -40 72
-47 64 -53 78 -70 167 -10 55 -16 67 -34 72 -34 8 -96 93 -96 130 0 52 -18 96
-49 124 -40 35 -65 96 -51 122 15 27 8 110 -8 110 -8 0 -22 10 -31 21 -15 19
-20 20 -40 8 -36 -22 -57 12 -64 105 -4 56 -12 86 -32 120 -15 25 -31 46 -36
46 -5 0 -21 18 -35 40 -21 32 -28 58 -35 132 -6 66 -14 97 -27 112 -45 51 -65
99 -73 177 -4 43 -11 102 -15 131 -4 29 -7 59 -7 66 0 6 -8 12 -17 12 -18 0
-61 42 -81 80 -7 14 -16 77 -20 140 -7 107 -29 200 -49 200 -31 0 -50 172 -52
485 -1 44 -6 74 -14 83 -8 7 -15 20 -15 28 -1 8 -2 20 -3 26 -2 22 -34 20 -46
-1 -14 -28 -26 -26 -47 6 -16 24 -19 65 -25 348 -3 176 -11 345 -17 375 -5 30
-13 73 -16 94 -8 56 -17 89 -26 102 -5 6 -21 71 -35 145 -25 123 -27 162 -34
479 -9 443 -2 1542 10 1640 5 41 14 113 20 160 6 47 19 112 30 145 58 175 62
215 69 630 6 346 8 394 24 423 19 34 44 42 53 17 6 -15 25 -22 22 -7 -4 19 17
42 38 42 20 0 23 4 19 28 -12 79 -14 112 -8 112 5 0 9 123 10 273 2 280 6 312
44 353 11 11 22 32 25 45 12 60 22 162 23 254 3 156 29 244 91 308 23 24 29
42 39 116 6 48 11 123 11 167 0 91 17 153 61 231 29 51 32 65 38 177 7 129 15
153 58 184 39 28 71 125 78 242 10 140 28 183 66 159 21 -13 23 -12 44 24 10
17 23 35 27 38 5 3 11 51 14 105 7 168 15 199 55 234 19 18 34 68 44 150 9 72
24 130 38 146 7 7 18 20 25 29 8 10 21 13 38 9 19 -5 23 -3 18 9 -3 9 2 71 10
139 12 89 22 131 36 151 59 80 67 97 73 160 3 35 11 76 18 90 12 27 41 43 58
33 5 -3 14 7 21 23 6 16 18 32 26 35 10 4 14 24 14 73 0 112 29 178 63 144 6
-6 32 -11 58 -11 l47 0 -10 40 c-6 24 -16 40 -25 40 -12 0 -14 11 -8 63 4 34
13 69 21 78 8 8 14 23 14 31 0 9 15 31 34 48 24 23 36 45 40 74 17 111 68 206
110 206 19 0 22 4 18 29 -5 37 23 135 46 158 33 33 70 98 77 133 11 60 36 110
57 110 10 0 18 -4 18 -10 0 -5 5 -10 10 -10 6 0 10 7 10 15 0 8 10 23 22 34
17 16 22 34 23 78 3 80 26 133 59 133 30 0 38 13 76 127 26 78 49 112 75 113
15 0 65 133 65 171 0 44 30 89 63 96 15 3 27 6 28 7 0 0 4 53 9 116 9 121 34
205 84 280 20 30 25 52 30 150 7 125 23 166 65 164 11 0 21 4 21 9 0 5 10 20
23 32 47 49 47 47 47 222 0 182 10 242 41 250 11 3 29 24 41 47 18 35 23 68
30 236 11 227 27 335 61 411 14 30 30 90 37 134 7 44 15 89 18 100 3 11 6 232
8 490 3 545 -8 706 -51 757 -42 50 -75 202 -75 346 0 65 -34 152 -60 152 -31
0 -45 31 -53 114 -4 45 -8 89 -8 99 0 9 -4 17 -8 17 -5 0 -11 18 -15 40 -7 46
-28 60 -55 36 -10 -9 -25 -14 -33 -11 -17 7 -38 47 -38 74 0 10 -22 40 -49 68
-56 57 -71 82 -71 117 0 20 -5 26 -21 26 -26 0 -178 157 -179 185 -1 33 -55
85 -89 85 -50 0 -81 17 -81 43 0 26 -38 67 -62 67 -9 0 -60 9 -114 19 -123 24
-246 31 -344 21z"/>
<path d="M51212 46059 c-56 -5 -111 -13 -122 -19 -10 -5 -39 -10 -63 -10 -33
0 -51 -6 -71 -25 -14 -13 -26 -31 -26 -39 0 -24 -48 -54 -97 -62 -53 -8 -92
-44 -93 -84 0 -16 -16 -40 -43 -67 -23 -23 -50 -53 -60 -67 -13 -18 -26 -25
-45 -24 -15 1 -45 1 -67 -1 l-40 -2 23 -19 c20 -16 22 -25 16 -57 -8 -41 -52
-93 -80 -93 -9 0 -15 -3 -12 -6 4 -3 -3 -27 -14 -52 -18 -42 -55 -85 -115
-133 -15 -12 -21 -33 -26 -86 -9 -90 -29 -146 -72 -199 -35 -42 -35 -44 -39
-156 -5 -140 -18 -196 -62 -275 -69 -124 -69 -124 -69 -748 l0 -560 24 -90
c13 -49 32 -101 41 -115 43 -62 53 -118 59 -330 l6 -205 38 -78 c48 -101 55
-132 67 -312 6 -82 12 -159 14 -170 3 -11 5 -25 5 -30 1 -6 11 -15 23 -20 12
-6 29 -23 38 -40 8 -16 18 -32 22 -35 21 -16 37 -87 42 -185 4 -60 11 -114 16
-120 5 -7 7 -15 3 -18 -3 -4 -1 -7 5 -7 19 0 41 -30 51 -68 6 -20 11 -99 13
-174 2 -129 4 -138 22 -138 10 0 25 -8 32 -17 10 -15 15 -16 25 -5 34 33 62
-8 73 -103 8 -68 43 -130 81 -145 25 -10 47 -50 58 -108 4 -18 24 -56 46 -85
50 -67 56 -81 70 -147 8 -35 22 -65 39 -82 64 -66 72 -77 86 -110 8 -19 16
-60 17 -91 2 -45 6 -57 19 -57 8 0 21 -8 28 -17 50 -74 62 -98 62 -125 0 -17
-6 -36 -14 -42 -8 -6 -17 -21 -21 -33 -5 -17 -2 -23 10 -23 19 0 47 -25 38
-34 -4 -3 1 -6 9 -6 9 0 18 9 21 20 7 28 35 36 55 17 9 -9 19 -44 23 -81 9
-73 49 -162 78 -171 24 -7 61 -92 61 -141 0 -36 51 -134 70 -134 13 0 30 -60
41 -143 10 -79 13 -84 86 -163 35 -38 43 -59 44 -121 2 -89 11 -118 35 -116
12 1 32 -9 45 -23 21 -22 25 -39 31 -122 9 -137 14 -173 28 -207 l11 -30 20
27 c38 52 64 12 74 -114 7 -87 38 -169 79 -207 36 -34 46 -78 46 -202 0 -95 2
-107 18 -111 23 -6 76 -83 90 -129 6 -19 13 -86 16 -149 7 -116 13 -136 58
-184 10 -11 18 -25 18 -31 0 -6 11 -21 25 -33 21 -19 25 -31 26 -84 2 -65 9
-240 12 -270 2 -22 27 -24 27 -3 0 30 30 14 51 -27 18 -35 22 -64 26 -173 3
-86 11 -159 25 -217 20 -81 23 -87 44 -82 18 5 26 -1 40 -28 14 -26 19 -71 25
-218 8 -196 16 -236 69 -340 42 -84 49 -139 50 -394 1 -130 4 -236 8 -236 8 0
15 -13 55 -96 47 -98 55 -162 61 -519 7 -359 14 -495 27 -495 5 0 9 -8 9 -17
0 -10 10 -43 21 -73 15 -39 24 -91 29 -175 5 -80 14 -135 26 -165 18 -43 19
-89 19 -975 0 -804 -2 -934 -15 -962 -8 -18 -18 -33 -21 -33 -3 0 -9 -46 -12
-102 -5 -98 -40 -267 -57 -278 -10 -7 -19 -168 -25 -460 -7 -306 -9 -322 -40
-367 -14 -21 -25 -41 -25 -46 0 -4 -9 -17 -20 -29 -11 -12 -20 -30 -20 -40 0
-10 -3 -18 -7 -18 -5 0 -9 -78 -11 -173 -2 -94 -5 -185 -9 -202 -3 -16 -28
-73 -56 -125 l-51 -94 -4 -121 c-5 -127 -18 -175 -50 -175 -10 0 -23 5 -30 12
-19 19 -33 -3 -38 -63 -18 -212 -24 -253 -39 -275 -21 -32 -53 -32 -61 1 -3
14 -11 25 -16 25 -6 0 -8 -7 -4 -15 3 -8 2 -15 -3 -15 -4 0 -6 -19 -5 -42 10
-181 0 -249 -42 -265 -7 -3 -14 -11 -14 -18 0 -6 -11 -24 -25 -39 -39 -42 -46
-62 -55 -148 -6 -63 -12 -85 -28 -97 -45 -35 -93 -112 -91 -144 5 -74 0 -89
-45 -131 -50 -47 -70 -83 -80 -143 -12 -79 -42 -117 -72 -92 -7 6 -17 8 -22 5
-11 -7 -34 -88 -38 -134 -2 -19 -12 -50 -22 -70 -17 -32 -24 -37 -51 -34 -29
2 -30 1 -21 -24 16 -42 -17 -133 -48 -134 -11 -1 -87 -74 -87 -85 -1 -59 -29
-119 -78 -170 -16 -16 -40 -51 -52 -78 -12 -26 -45 -71 -73 -100 -36 -39 -51
-64 -57 -94 -3 -23 -16 -51 -28 -62 -97 -92 -170 -170 -194 -205 -15 -22 -55
-68 -90 -102 -47 -45 -63 -68 -63 -88 0 -36 -15 -63 -60 -107 -20 -20 -45 -54
-56 -75 -12 -24 -32 -46 -54 -56 -36 -18 -80 -64 -80 -84 0 -26 -42 -64 -70
-64 -21 0 -30 -7 -40 -30 -7 -16 -20 -32 -30 -35 -9 -3 -29 -18 -43 -34 -14
-16 -30 -30 -36 -32 -6 -2 -13 -20 -15 -39 -3 -23 -13 -41 -31 -55 -15 -11
-68 -63 -119 -115 -50 -52 -105 -108 -122 -125 -111 -107 -168 -156 -189 -161
-15 -4 -25 -13 -25 -24 0 -20 -30 -50 -51 -50 -21 0 -99 -79 -99 -100 0 -10
-21 -36 -47 -57 -51 -42 -108 -94 -193 -178 -30 -30 -62 -55 -71 -55 -9 0 -39
-20 -65 -45 -27 -25 -58 -45 -69 -45 -30 0 -96 -25 -88 -33 3 -4 0 -7 -8 -7
-16 0 -49 -49 -49 -74 0 -17 -48 -46 -77 -46 -18 0 -56 -48 -67 -86 -3 -11
-25 -31 -47 -45 -23 -13 -61 -41 -84 -61 -26 -23 -52 -38 -68 -38 -14 0 -29
-4 -32 -10 -3 -5 -24 -14 -45 -20 -22 -6 -40 -15 -40 -21 0 -24 -52 -89 -75
-94 -14 -3 -36 -7 -50 -10 -14 -3 -31 -18 -40 -34 -16 -31 -83 -69 -133 -76
-40 -5 -68 -31 -77 -73 -7 -36 -29 -52 -72 -52 -50 -1 -95 -32 -122 -83 -32
-60 -48 -70 -98 -58 -21 5 -32 9 -25 10 6 1 12 6 12 11 0 6 -18 10 -41 10 -33
0 -40 -3 -37 -17 2 -9 13 -20 24 -23 25 -6 19 -33 -12 -62 -22 -19 -99 -48
-130 -48 -22 0 -54 -29 -54 -49 0 -6 -12 -23 -27 -36 -28 -25 -67 -39 -135
-50 -27 -4 -41 -13 -50 -33 -17 -34 -52 -52 -107 -52 -58 0 -114 -37 -135 -90
-20 -50 -51 -70 -105 -68 -37 1 -46 -3 -79 -39 -20 -22 -45 -50 -56 -63 -17
-21 -23 -22 -92 -17 -81 7 -105 2 -97 -19 7 -20 -18 -71 -42 -83 -11 -5 -44
-12 -73 -15 -67 -7 -106 -25 -110 -52 -6 -42 -78 -84 -144 -84 -37 0 -75 -20
-112 -59 -29 -30 -33 -31 -112 -31 -63 0 -86 -4 -96 -16 -7 -8 -25 -27 -40
-41 -15 -14 -24 -31 -21 -40 3 -7 -5 -25 -17 -39 -19 -19 -33 -24 -75 -24 -71
0 -144 -26 -151 -54 -3 -12 -20 -31 -38 -44 -27 -18 -46 -22 -112 -22 -43 0
-86 -5 -94 -10 -8 -5 -24 -28 -35 -52 -20 -42 -21 -43 -75 -45 -119 -5 -200
-35 -200 -73 0 -27 -77 -58 -163 -65 -79 -8 -97 -16 -159 -77 -18 -18 -80 -34
-95 -25 -14 9 -158 -12 -161 -23 -2 -5 -19 -19 -38 -31 -28 -17 -32 -24 -23
-35 26 -31 -56 -77 -128 -72 -60 4 -112 -3 -125 -16 -8 -7 -24 -17 -36 -20
-12 -4 -29 -18 -38 -31 -26 -40 -68 -50 -201 -49 -74 1 -123 -2 -123 -8 0 -6
9 -12 20 -15 28 -7 25 -14 -15 -46 -37 -29 -78 -39 -225 -52 -72 -7 -77 -9
-137 -60 -69 -58 -64 -57 -257 -71 l-88 -6 -41 -44 -41 -44 -119 0 c-116 0
-217 -19 -217 -41 0 -5 -9 -9 -19 -9 -25 0 -52 -26 -45 -44 3 -7 -2 -19 -11
-26 -8 -7 -15 -19 -15 -26 0 -11 -25 -14 -122 -14 -135 -1 -206 -11 -223 -32
-6 -7 -18 -17 -26 -23 -9 -5 -28 -18 -42 -29 -41 -28 -90 -36 -249 -36 l-147
0 -15 -29 c-18 -34 -72 -68 -123 -76 -21 -4 -59 -13 -85 -22 -26 -8 -60 -13
-75 -11 l-28 4 37 16 c21 9 50 28 65 43 16 14 44 28 64 31 35 6 65 30 149 118
14 14 36 26 50 26 18 0 32 11 48 35 12 19 22 39 22 43 0 25 39 41 105 45 49 2
63 6 48 11 -18 7 -21 13 -16 44 6 42 34 72 68 72 14 0 38 16 62 41 21 22 55
49 75 60 20 10 45 31 55 45 38 57 71 84 101 84 24 0 38 11 77 63 71 92 95 105
129 72 20 -20 35 -19 32 3 -2 10 -15 20 -32 23 -16 4 -23 7 -16 8 6 0 12 7 12
14 0 19 38 51 93 76 39 19 47 27 47 50 0 31 40 81 65 81 15 0 193 174 226 221
10 15 25 22 45 21 23 0 35 8 57 38 15 21 27 45 27 53 0 24 29 41 65 39 32 -2
35 0 45 40 7 24 27 56 48 77 20 20 52 56 71 81 19 25 39 47 45 49 18 7 206
197 206 208 0 18 36 43 64 43 37 0 76 46 76 88 0 22 101 129 153 161 25 15 46
41 63 76 18 35 46 69 85 102 52 43 109 112 109 132 0 4 20 28 44 53 24 25 52
60 62 77 10 17 25 31 32 31 25 0 67 44 70 75 5 48 25 79 61 97 18 9 41 30 51
46 10 17 50 65 89 108 40 43 74 88 77 101 4 13 10 23 14 23 5 0 11 9 15 19 4
13 17 21 38 23 27 3 32 7 35 33 4 46 32 105 74 156 21 26 38 53 38 61 0 26 40
59 67 56 19 -2 31 6 54 37 16 23 32 53 34 68 10 50 25 77 48 86 26 10 63 65
73 109 8 34 49 89 71 96 10 4 29 32 42 64 47 111 55 125 82 141 19 11 35 34
49 74 12 32 39 76 61 100 21 23 44 58 50 77 17 50 41 90 56 90 7 0 13 -4 13
-10 0 -5 4 -10 8 -10 5 0 9 6 9 14 0 20 30 81 48 96 8 7 15 21 15 32 0 33 29
90 49 95 23 6 58 76 70 140 10 53 40 97 68 101 16 2 27 21 47 75 14 40 26 88
26 107 0 45 29 83 63 83 22 0 28 6 37 36 5 20 10 46 10 57 0 39 29 105 69 155
32 40 40 60 46 109 8 65 27 94 56 87 11 -3 19 -2 19 1 0 4 15 23 34 42 31 33
33 41 38 125 6 87 7 90 41 120 43 37 63 76 72 140 11 85 35 144 66 167 16 12
29 28 29 35 0 8 7 27 16 44 8 16 19 68 25 115 12 112 29 146 71 142 27 -3 32
1 40 27 5 17 6 51 3 76 -3 29 2 76 14 126 22 94 29 108 70 147 30 29 31 33 31
116 0 85 13 150 31 150 18 0 100 97 109 130 6 19 10 69 11 110 1 143 13 220
37 238 11 10 32 42 45 72 21 46 26 77 31 195 7 159 14 192 56 259 54 84 70
171 79 410 6 176 10 219 24 240 20 30 30 32 51 11 8 -8 18 -15 23 -15 11 0 12
23 16 435 4 375 15 531 49 725 12 63 24 162 29 220 8 111 16 150 30 150 5 0 9
63 9 140 0 87 -4 140 -10 140 -5 0 -10 19 -10 43 0 24 -4 68 -10 98 -5 30 -11
68 -13 84 -3 17 -14 89 -25 160 -37 234 -45 346 -48 690 -2 187 -5 346 -6 353
-2 18 -18 15 -39 -10 -19 -23 -19 -23 -32 -3 -25 40 -35 81 -36 140 -1 72 -32
145 -83 198 -35 36 -47 59 -67 132 -11 41 -36 72 -107 135 -21 19 -49 48 -61
65 l-21 29 -153 8 c-85 4 -162 5 -171 2 -10 -3 -22 -22 -28 -44 -10 -35 -42
-72 -73 -83 -10 -3 3 -63 31 -135 2 -7 -10 1 -29 17 -18 17 -37 31 -41 31 -7
0 -21 -43 -32 -101 -3 -15 -15 -37 -25 -50 -17 -21 -22 -23 -41 -11 -12 7 -25
11 -28 8 -3 -3 -6 -99 -7 -214 -1 -229 -7 -256 -70 -339 -29 -39 -33 -51 -39
-138 -6 -95 -20 -144 -40 -146 -6 -1 -20 0 -32 0 -15 2 -27 -10 -45 -44 -13
-25 -27 -45 -30 -45 -4 0 -7 -42 -8 -92 -2 -95 -16 -138 -46 -138 -21 0 -68
-107 -73 -168 -4 -44 -9 -56 -36 -77 -17 -13 -38 -30 -47 -38 -9 -8 -24 -49
-34 -92 -16 -66 -25 -86 -62 -124 -24 -25 -46 -57 -50 -71 -12 -50 -43 -99
-84 -134 -41 -34 -42 -38 -40 -89 2 -61 -21 -94 -60 -84 -16 4 -30 -3 -52 -26
-25 -26 -32 -44 -38 -96 -6 -55 -11 -68 -40 -95 -19 -18 -45 -51 -59 -75 -33
-57 -79 -111 -95 -111 -12 0 -65 -98 -65 -123 0 -6 -19 -32 -41 -56 -22 -24
-43 -57 -46 -73 -3 -16 -17 -37 -32 -48 -40 -30 -91 -84 -91 -96 0 -22 -42
-64 -63 -64 -25 -1 -88 -77 -113 -137 -9 -21 -34 -59 -55 -84 -22 -26 -42 -61
-45 -78 -4 -18 -23 -46 -48 -68 -22 -21 -52 -53 -65 -73 -13 -19 -42 -56 -65
-81 -22 -25 -49 -55 -58 -67 -10 -12 -27 -22 -39 -22 -28 0 -99 -71 -99 -99 0
-12 -10 -29 -21 -39 -12 -9 -31 -28 -43 -41 -12 -13 -40 -45 -63 -69 -24 -25
-45 -54 -49 -65 -3 -10 -13 -27 -22 -36 -10 -9 -35 -38 -58 -63 -22 -26 -52
-52 -66 -57 -14 -5 -34 -29 -49 -58 -32 -65 -58 -93 -84 -93 -13 0 -26 -9 -33
-25 -6 -13 -25 -31 -42 -40 -16 -8 -30 -20 -30 -26 0 -5 -16 -17 -35 -25 -31
-13 -35 -18 -33 -47 2 -42 -11 -64 -52 -85 -19 -9 -51 -41 -71 -71 -46 -67
-164 -188 -192 -197 -22 -7 -66 -53 -67 -70 0 -26 -42 -64 -70 -64 -20 0 -31
-6 -35 -20 -4 -11 -20 -27 -36 -35 -16 -9 -29 -20 -29 -25 0 -5 -16 -14 -35
-21 -26 -10 -34 -17 -29 -29 18 -41 -7 -84 -56 -93 -17 -4 -39 -21 -56 -44
-15 -21 -64 -73 -108 -115 -60 -58 -87 -78 -107 -78 -30 0 -46 -17 -91 -94
-18 -31 -34 -46 -48 -46 -11 0 -41 -20 -67 -44 -26 -25 -59 -51 -73 -58 -33
-17 -58 -47 -66 -78 -9 -35 -43 -70 -68 -70 -12 0 -32 -14 -46 -32 -14 -17
-65 -71 -115 -119 -66 -65 -97 -89 -116 -89 -26 0 -52 -30 -90 -105 -10 -20
-23 -31 -41 -33 -32 -4 -92 -57 -117 -103 -10 -19 -27 -36 -37 -38 -20 -4 -31
-16 -70 -74 -16 -25 -35 -40 -55 -44 -16 -3 -41 -20 -54 -37 -44 -55 -80 -86
-98 -86 -23 0 -67 -29 -67 -44 0 -22 -45 -56 -74 -56 -20 0 -40 -14 -74 -50
-26 -27 -56 -59 -67 -70 -92 -96 -170 -160 -195 -160 -22 0 -29 -5 -33 -28 -8
-39 -73 -100 -114 -108 -25 -5 -41 -16 -57 -43 -29 -45 -41 -55 -89 -71 -26
-8 -46 -23 -59 -46 -23 -39 -46 -54 -80 -54 -27 0 -84 -57 -111 -111 -13 -25
-31 -41 -63 -54 -31 -13 -55 -32 -75 -61 -33 -49 -61 -62 -95 -44 -19 11 -26
11 -39 0 -9 -7 -14 -19 -11 -26 8 -21 -14 -71 -37 -87 -12 -8 -38 -19 -57 -26
-20 -6 -42 -23 -51 -39 -8 -15 -40 -40 -73 -56 -39 -20 -67 -43 -87 -72 -16
-24 -37 -44 -46 -44 -32 0 -88 -25 -110 -50 -13 -14 -28 -42 -35 -64 -14 -46
-49 -67 -80 -47 -23 14 -38 1 -63 -55 -14 -30 -40 -46 -97 -58 -15 -3 -29 -15
-33 -25 -11 -36 -46 -70 -91 -90 -24 -11 -71 -45 -103 -75 -34 -33 -70 -58
-89 -62 -37 -8 -72 -38 -72 -64 0 -32 -29 -52 -66 -45 -38 7 -74 -8 -74 -30 0
-8 -4 -15 -10 -15 -5 0 -22 -18 -36 -40 -15 -22 -47 -53 -73 -68 -25 -16 -65
-47 -88 -69 -22 -22 -56 -44 -74 -49 -21 -6 -43 -25 -64 -54 -19 -27 -43 -49
-61 -54 -52 -15 -110 -45 -129 -66 -22 -24 -71 -50 -95 -50 -20 0 -56 -37 -84
-87 -16 -27 -31 -39 -64 -49 -23 -6 -52 -10 -65 -7 -12 3 -19 2 -15 -2 4 -4
-4 -21 -17 -37 -14 -16 -25 -40 -25 -53 0 -24 -49 -55 -89 -55 -11 0 -28 -12
-38 -26 -36 -52 -53 -64 -88 -64 -36 0 -45 -7 -105 -80 -31 -38 -81 -70 -109
-70 -12 0 -36 -15 -54 -35 -32 -35 -99 -65 -144 -65 -13 0 -22 -4 -18 -9 3 -6
-3 -15 -14 -21 -11 -6 -25 -28 -31 -49 -14 -52 -31 -65 -76 -56 -40 7 -74 -14
-74 -45 0 -24 -38 -70 -58 -70 -36 0 -91 -27 -113 -54 -49 -59 -82 -86 -106
-86 -13 0 -34 -10 -46 -22 -79 -79 -121 -108 -154 -108 -44 0 -73 -16 -73 -39
0 -25 -32 -51 -64 -51 -39 0 -136 -64 -136 -90 0 -33 -44 -70 -83 -70 -25 0
-43 -10 -75 -40 -23 -23 -42 -45 -42 -50 0 -13 -66 -40 -95 -40 -21 0 -43 -24
-70 -75 -8 -15 -21 -20 -51 -21 -22 -1 -54 -8 -71 -17 -32 -17 -83 -71 -83
-89 0 -16 -32 -37 -57 -38 -34 0 -94 -32 -124 -64 -22 -25 -35 -30 -78 -32
-43 -1 -56 -6 -86 -35 -21 -21 -33 -40 -29 -51 9 -29 -36 -69 -86 -75 -61 -8
-76 -17 -96 -59 -18 -37 -76 -73 -119 -74 -22 -1 -85 -53 -85 -70 0 -13 -61
-40 -91 -40 -12 0 -47 -25 -83 -60 -54 -52 -68 -60 -100 -60 -32 0 -45 -7 -80
-44 -43 -46 -65 -57 -118 -58 -19 -1 -40 -9 -49 -20 -9 -10 -22 -18 -28 -18
-20 0 -41 -27 -41 -53 0 -29 -37 -63 -97 -90 -22 -11 -47 -30 -54 -43 -7 -13
-37 -43 -66 -66 -30 -23 -60 -49 -66 -58 -7 -9 -52 -54 -100 -99 -98 -89 -139
-139 -222 -264 -14 -21 -37 -43 -50 -49 -14 -6 -25 -17 -25 -24 0 -7 -18 -35
-40 -63 -35 -44 -45 -51 -75 -51 -32 0 -34 -2 -26 -24 12 -30 -16 -79 -56 -98
-15 -7 -46 -41 -68 -75 -23 -36 -50 -65 -62 -69 -13 -3 -36 -27 -51 -53 -37
-57 -61 -84 -89 -100 -13 -6 -23 -18 -23 -25 0 -18 -48 -105 -73 -133 -11 -13
-31 -23 -43 -23 -19 0 -26 -11 -44 -67 -13 -43 -34 -81 -55 -103 -18 -19 -45
-55 -60 -78 -22 -37 -30 -43 -50 -38 -20 5 -28 -2 -59 -51 -20 -32 -36 -67
-36 -78 -1 -29 -23 -65 -49 -78 -13 -7 -32 -34 -43 -62 -35 -89 -53 -118 -79
-134 -29 -16 -79 -108 -79 -143 0 -35 -39 -88 -65 -88 -23 0 -35 -17 -35 -51
0 -25 -25 -74 -51 -100 -10 -10 -19 -23 -19 -29 0 -5 -15 -10 -34 -10 -33 0
-34 -2 -28 -27 10 -44 6 -111 -8 -128 -7 -8 -25 -15 -41 -15 -19 0 -30 -6 -34
-20 -3 -11 -11 -20 -16 -20 -23 0 -38 -31 -44 -91 -10 -97 -22 -132 -56 -170
-47 -52 -56 -69 -69 -134 -13 -65 -33 -101 -58 -109 -24 -8 -62 -96 -69 -158
-6 -56 -27 -108 -43 -108 -6 0 -19 6 -30 12 -32 20 -41 -1 -49 -113 -5 -76
-12 -112 -26 -134 -25 -39 -35 -45 -62 -39 -23 6 -23 5 -22 -92 2 -128 -11
-162 -91 -239 -8 -8 -23 -20 -32 -27 -14 -10 -19 -34 -23 -103 -7 -103 -22
-170 -41 -186 -33 -27 -64 -118 -70 -206 -7 -90 -29 -160 -63 -198 -10 -11
-30 -50 -45 -87 -21 -53 -26 -84 -26 -155 -1 -107 -12 -169 -35 -191 -15 -16
-18 -15 -38 10 -30 37 -43 24 -46 -42 -17 -413 -17 -414 -39 -457 -24 -45 -44
-63 -50 -45 -2 7 -9 12 -16 12 -9 0 -13 -63 -14 -262 -2 -145 -5 -272 -8 -283
-9 -33 -28 -69 -41 -78 -7 -4 -13 -14 -13 -21 0 -8 -16 -56 -36 -107 -42 -108
-42 -110 -49 -514 -7 -455 -20 -653 -50 -780 -7 -33 -16 -76 -20 -95 -12 -79
-17 -552 -6 -780 11 -247 14 -278 31 -360 26 -120 36 -305 46 -820 3 -179 7
-341 10 -360 2 -19 4 -54 5 -77 1 -24 6 -43 11 -43 4 0 8 -6 8 -14 0 -8 3 -16
8 -18 9 -4 42 -75 42 -92 0 -8 7 -20 16 -27 33 -27 38 -66 44 -329 3 -146 8
-272 11 -280 2 -8 13 -19 24 -25 11 -5 30 -32 43 -58 21 -44 24 -70 33 -280
11 -272 24 -351 50 -304 15 26 37 21 54 -14 12 -22 19 -77 24 -192 9 -175 27
-245 76 -297 41 -43 55 -101 55 -225 0 -103 2 -116 23 -142 12 -15 27 -35 32
-44 6 -9 18 -28 28 -42 14 -19 22 -64 33 -174 8 -81 18 -169 20 -195 l6 -48
209 0 209 0 0 23 c0 22 15 40 103 127 91 89 154 140 173 140 18 0 74 59 74 78
0 18 47 52 73 52 26 0 39 10 84 63 13 15 33 27 46 27 12 0 28 9 35 20 7 11 20
20 30 20 24 0 42 19 42 44 1 28 28 59 83 94 25 16 64 52 86 80 27 33 50 52 70
57 17 4 40 19 51 33 36 49 53 62 82 62 31 0 77 42 78 71 0 28 40 69 66 69 17
0 42 17 75 50 27 28 56 50 64 50 8 0 33 10 55 21 32 17 39 25 34 41 -7 23 30
68 55 68 9 0 27 9 41 20 14 11 30 20 37 20 6 0 27 24 47 54 37 56 51 66 91 66
14 0 32 11 44 28 35 46 52 61 81 67 27 6 91 68 103 99 4 9 25 25 49 36 24 11
62 37 84 59 40 37 91 62 124 59 72 -6 122 16 69 29 -46 12 12 113 65 113 23 0
37 11 83 69 15 18 42 40 59 47 18 8 52 33 76 57 35 36 52 45 92 51 54 8 94 42
103 88 7 37 27 51 68 50 37 -1 75 28 75 58 0 22 31 50 56 50 10 0 42 8 69 18
41 15 51 22 53 45 5 38 51 80 103 94 34 9 51 21 69 50 18 27 46 48 100 75 41
21 79 46 84 57 10 23 47 41 84 41 32 0 72 25 72 46 0 8 4 14 10 14 5 0 20 16
32 35 13 19 31 35 40 35 9 0 20 4 23 10 3 6 15 10 25 10 10 0 21 8 24 18 3 9
21 34 40 54 29 32 41 38 75 38 47 0 81 27 81 63 0 32 30 57 67 57 31 0 58 17
130 81 22 21 64 48 93 60 36 15 59 34 76 60 21 34 29 38 78 44 60 8 82 24 122
86 29 47 64 63 120 55 48 -6 60 1 40 23 -13 14 -12 19 7 41 24 28 68 50 97 50
32 0 70 22 70 41 0 22 47 79 65 79 26 0 109 51 141 85 28 31 37 35 83 35 28 0
51 5 51 10 0 6 6 10 13 10 16 0 44 33 60 68 16 37 25 42 79 42 38 0 50 4 59
21 6 12 24 35 40 52 16 16 29 33 29 37 0 4 11 12 25 18 32 15 109 16 100 2 -4
-6 9 -10 30 -10 41 0 44 18 7 35 -28 12 -21 40 19 78 26 24 66 35 103 28 27
-5 65 23 72 52 8 42 32 67 62 67 37 0 130 47 137 69 9 30 46 48 111 56 65 8
104 38 104 81 0 32 28 44 105 44 36 0 64 4 61 8 -3 5 3 15 12 24 9 8 24 25 32
38 41 62 44 64 114 64 36 0 63 2 58 5 -4 3 -7 12 -6 19 1 6 2 16 3 22 0 5 12
20 26 34 24 24 51 35 135 54 26 6 42 19 65 54 33 50 60 68 105 68 16 0 35 7
44 15 8 8 18 15 21 15 4 0 23 14 42 30 19 17 45 30 61 30 37 1 124 25 116 32
-3 4 6 14 20 23 16 11 26 27 26 41 0 36 36 54 107 54 61 0 64 1 83 33 11 17
20 39 20 47 0 27 43 45 120 50 l74 5 11 40 c14 57 22 65 61 65 19 0 58 7 86
17 40 13 53 23 64 48 18 43 50 62 124 74 64 11 90 24 90 46 0 30 51 55 112 55
86 0 157 43 158 97 0 35 24 50 91 57 69 7 105 25 119 60 5 13 21 33 37 46 24
19 35 21 78 15 118 -15 135 -17 135 -8 0 5 -9 15 -20 23 -26 19 -25 34 5 64
19 19 39 26 91 32 66 6 70 9 134 69 63 59 69 62 130 69 67 8 110 27 110 50 0
27 36 46 89 46 76 0 137 18 156 46 8 13 22 24 31 24 12 0 14 7 10 28 -6 23 -2
30 23 45 17 10 59 21 93 25 63 8 75 14 138 74 36 34 68 43 123 34 104 -17 137
-19 137 -6 0 6 -9 14 -21 17 -19 5 -20 11 -15 47 4 22 9 43 12 45 3 3 42 8 88
12 45 3 93 13 107 20 36 21 69 51 69 63 0 21 44 39 114 47 107 12 149 28 161
64 5 17 14 33 20 37 5 4 59 8 119 8 60 0 107 3 103 6 -5 5 12 30 39 57 5 6 8
22 6 36 -5 37 42 61 119 61 72 0 137 24 149 56 11 29 62 44 190 54 52 5 102
11 111 15 9 3 25 24 35 46 21 44 24 45 146 53 102 7 175 28 203 59 42 46 77
60 189 73 141 18 162 26 170 69 5 27 13 35 36 40 16 4 35 3 41 0 6 -4 49 -4
95 0 78 6 86 9 97 32 6 14 26 41 44 61 18 20 33 42 33 49 0 9 15 13 48 14 97
1 137 13 181 56 47 45 65 51 194 60 86 6 96 10 78 29 -6 5 -5 15 2 24 32 39
59 52 129 61 78 9 128 26 128 41 0 15 63 68 80 68 9 0 20 4 26 10 5 5 36 12
69 16 88 10 103 18 110 57 9 45 36 57 113 51 35 -2 63 0 67 6 3 5 17 10 31 10
13 0 23 3 22 8 -2 4 7 18 20 32 12 13 22 36 22 52 0 34 17 43 99 52 70 7 111
27 111 54 0 29 52 52 115 52 60 0 95 12 95 33 0 15 45 59 77 76 12 6 37 11 55
11 46 0 111 33 127 64 19 34 69 56 127 56 33 0 58 7 80 22 27 19 31 27 27 53
-4 26 -1 33 21 43 15 7 51 12 81 12 47 0 59 4 90 32 19 18 35 40 35 49 0 9 14
28 32 43 24 20 43 26 77 26 41 0 49 4 81 40 32 37 44 43 129 63 56 13 96 27
99 36 3 8 14 24 24 35 10 12 25 29 33 39 9 9 29 17 48 17 37 0 76 23 107 63
12 15 26 27 32 27 6 0 19 6 27 14 9 7 38 17 65 21 42 6 48 4 43 -9 -5 -12 0
-16 24 -16 20 0 29 4 27 12 -3 7 1 19 9 26 7 7 13 33 13 57 0 53 17 66 81 63
40 -1 46 2 93 54 51 54 77 71 127 82 14 3 45 25 70 50 38 37 55 46 106 56 44
9 64 18 73 34 27 46 89 88 147 100 48 9 60 16 71 39 20 42 56 60 117 60 30 0
53 3 50 6 -2 4 9 15 25 26 24 16 28 24 23 48 -7 33 23 67 59 67 13 0 45 8 73
18 42 15 52 23 64 57 18 49 26 55 74 55 31 0 47 8 90 48 62 56 88 72 120 72
13 0 31 8 40 18 38 40 53 59 69 84 14 21 28 28 65 33 67 9 92 21 98 48 8 29
46 52 75 44 11 -3 27 1 35 9 7 8 41 17 74 20 44 5 58 10 54 20 -3 8 -14 14
-24 14 -14 0 -19 7 -19 25 0 34 31 63 77 71 45 7 83 29 83 47 0 19 37 51 87
76 23 12 65 41 93 66 42 37 58 45 90 45 35 0 43 5 82 56 41 53 89 84 129 84
19 0 69 44 69 60 0 6 7 10 15 10 8 0 19 9 25 20 12 21 79 44 104 34 9 -3 23
-1 31 6 12 10 12 15 -2 36 -14 22 -14 26 1 49 10 15 26 25 40 25 12 0 26 3 30
8 4 4 24 12 44 17 27 7 41 19 52 42 10 21 28 37 55 48 76 32 90 41 93 63 4 25
47 62 72 62 35 0 79 27 109 65 49 64 63 75 103 82 31 4 44 14 66 47 15 22 45
51 67 63 33 18 49 21 108 16 57 -5 69 -4 65 8 -2 8 -17 15 -31 17 -61 7 -17
84 67 116 24 9 52 28 60 41 9 14 40 37 69 51 28 15 72 48 97 74 33 35 55 49
85 55 44 8 105 61 105 93 0 30 21 42 72 42 49 0 68 16 68 55 0 21 39 54 64 55
27 0 86 42 86 61 0 18 44 59 85 79 16 8 49 34 72 58 22 23 45 42 51 42 5 0 17
9 27 20 10 11 24 20 31 20 21 0 62 39 68 64 7 27 43 46 78 39 19 -4 30 2 46
24 12 15 27 35 34 43 7 8 18 23 23 34 11 21 81 50 102 41 10 -3 11 0 4 14 -8
14 -3 24 22 49 18 18 36 32 40 32 20 0 86 55 91 76 4 13 30 43 60 67 102 80
213 182 229 210 9 15 24 27 34 27 26 1 88 60 105 100 13 30 124 152 184 201
10 9 28 29 39 45 27 39 84 94 129 124 21 14 43 31 49 39 7 7 27 28 45 46 17
17 32 36 32 40 0 5 17 26 38 46 86 86 109 116 116 153 5 27 23 53 62 93 30 30
54 62 54 69 0 8 19 34 43 57 23 23 58 63 77 87 43 56 50 61 77 53 17 -4 23 -1
23 11 0 9 4 16 10 16 5 0 12 11 16 24 3 14 14 32 25 42 10 9 19 24 19 33 1 20
24 51 37 51 6 0 27 15 47 33 31 29 35 38 30 64 -7 37 15 83 50 106 14 9 34 38
46 64 12 27 44 70 74 98 44 42 106 141 106 170 0 4 16 23 35 43 19 20 35 44
35 53 0 9 10 29 21 44 16 19 28 26 46 22 17 -3 27 2 35 17 6 11 17 25 24 29 8
4 14 19 14 33 0 46 22 112 42 131 15 13 22 15 25 6 7 -20 23 -15 23 6 0 45 83
191 119 211 12 6 27 43 46 112 30 112 52 143 92 133 19 -4 23 -1 23 17 2 92
21 147 71 209 21 25 41 58 44 75 16 72 38 123 54 129 9 3 36 23 60 44 l44 40
2 80 c2 84 13 111 47 111 25 0 68 90 68 143 0 45 32 112 60 127 32 17 60 83
72 171 7 50 19 90 30 105 20 24 48 33 48 14 0 -5 8 -10 18 -10 15 0 17 12 18
98 1 117 14 166 64 246 33 54 38 70 43 143 6 103 22 138 61 138 23 1 32 7 39
28 5 15 15 27 23 27 8 0 14 7 14 15 0 8 4 15 8 15 5 0 10 19 10 43 8 198 20
256 56 270 24 9 56 126 61 227 4 52 11 113 17 135 11 36 41 92 58 105 4 3 17
34 29 70 16 47 24 108 32 225 8 123 14 167 28 190 10 16 24 28 32 26 32 -8 42
-5 46 14 3 11 6 108 8 216 3 242 22 335 88 433 23 33 23 40 25 307 1 151 7
297 12 324 5 28 9 66 8 85 0 19 0 238 1 485 1 286 -2 463 -9 485 -5 19 -10
111 -10 205 0 469 -11 1155 -20 1190 -5 23 -9 92 -9 155 1 76 -4 134 -15 170
-12 45 -15 99 -11 300 5 356 19 610 34 645 7 17 13 64 13 105 0 65 -5 86 -36
152 -60 129 -67 170 -71 406 -3 219 -8 249 -40 222 -14 -11 -19 -10 -37 8 -27
26 -36 91 -37 253 -1 148 -29 263 -70 296 -39 31 -58 92 -65 206 -5 79 -12
108 -33 149 -14 27 -32 52 -39 55 -19 7 -46 147 -48 256 0 9 -4 17 -8 17 -4 0
-8 7 -8 15 0 8 -5 15 -10 15 -6 0 -18 12 -28 28 -12 18 -24 26 -39 24 -36 -5
-53 35 -62 145 -6 77 -12 106 -29 131 -73 108 -73 106 -81 212 -5 76 -8 85
-26 86 -11 1 -25 2 -31 3 -17 2 -42 70 -49 131 -9 81 -42 174 -71 201 -39 36
-60 87 -68 157 -7 74 -30 129 -57 137 -35 11 -48 46 -53 142 -4 87 -6 94 -35
122 -17 17 -31 35 -31 41 0 5 -11 10 -25 10 -35 0 -56 38 -65 118 -6 55 -15
78 -48 128 -50 73 -71 148 -67 237 2 52 0 67 -11 67 -8 0 -14 -4 -14 -10 0
-19 -38 -10 -53 14 -9 13 -23 61 -33 107 -19 96 -34 131 -76 175 -24 25 -31
45 -38 97 -4 36 -11 71 -15 77 -4 6 -9 30 -11 53 -2 22 -13 50 -24 62 -11 12
-17 25 -13 28 3 4 -3 7 -15 7 -34 0 -51 38 -54 118 -2 39 -7 72 -12 72 -4 0
-5 11 -2 25 5 18 2 25 -8 25 -7 0 -19 14 -26 30 -13 31 -24 37 -35 20 -3 -5
-14 -10 -24 -10 -27 0 -51 59 -51 123 0 43 -5 62 -23 84 -62 77 -76 108 -82
178 -10 109 -12 116 -38 110 -33 -9 -62 29 -76 100 -16 87 -30 133 -44 147
-40 41 -86 160 -88 225 0 15 -10 48 -22 73 -18 35 -27 44 -44 42 -38 -5 -57
39 -56 129 0 44 -3 79 -8 79 -8 0 -4 33 6 50 3 6 -3 10 -13 10 -12 0 -24 11
-32 30 -15 36 -17 36 -39 8 l-18 -22 -17 26 c-9 14 -21 53 -27 87 -7 44 -20
77 -45 113 -51 72 -65 112 -67 185 0 34 -4 63 -9 63 -5 0 -6 5 -2 11 5 8 -1
10 -19 5 -36 -9 -74 38 -82 102 -9 73 -35 144 -65 177 -40 44 -49 66 -54 136
-3 40 -10 65 -19 71 -8 4 -20 21 -27 38 -10 24 -17 29 -35 24 -38 -9 -61 36
-57 115 2 60 -1 68 -35 118 -20 29 -42 53 -49 53 -20 0 -45 48 -58 114 -14 66
-37 118 -66 151 -26 29 -48 102 -51 170 -3 79 -6 85 -39 85 -37 0 -68 49 -91
146 -11 48 -28 86 -48 111 -30 37 -57 124 -47 150 3 7 2 13 -2 13 -5 0 -6 15
-4 34 3 24 -2 40 -15 53 -10 11 -23 28 -29 39 -10 15 -14 17 -25 7 -35 -34
-67 12 -76 112 -7 80 -39 141 -71 137 -35 -5 -63 50 -60 117 3 53 1 56 -39 95
-45 44 -53 65 -74 204 -10 64 -13 72 -33 72 -27 0 -71 45 -79 80 -27 124 -42
162 -69 178 -30 18 -47 63 -43 117 2 29 -14 95 -25 105 -3 3 -13 22 -23 43
-15 34 -19 37 -39 26 -33 -18 -68 27 -68 88 0 59 -31 124 -75 157 -34 26 -47
57 -60 138 -3 21 -22 58 -41 83 -25 34 -42 73 -60 143 -21 78 -32 103 -59 130
-55 54 -85 125 -85 202 0 82 -13 123 -45 140 -26 14 -62 101 -50 120 3 5 1 10
-5 10 -7 0 -10 7 -6 15 3 8 1 15 -4 15 -6 0 -10 11 -10 25 0 28 -20 75 -32 75
-4 0 -18 -6 -29 -12 -18 -11 -23 -10 -44 16 -13 16 -26 41 -28 56 -6 27 -41
67 -97 109 -17 13 -35 32 -39 43 -4 10 -31 36 -61 57 -48 33 -55 42 -55 72 0
25 -9 43 -32 67 -29 30 -35 32 -101 32 -75 0 -79 3 -97 55 -13 37 -60 53 -162
54 -39 1 -102 7 -140 15 -98 20 -203 25 -321 15z"/>
<path d="M22500 44522 c0 -15 -26 -25 -147 -55 -89 -22 -172 -37 -208 -37 -73
0 -136 -14 -150 -33 -10 -14 -113 -38 -150 -35 -53 4 -105 -3 -119 -17 -8 -8
-39 -20 -68 -26 -29 -6 -67 -15 -84 -20 -17 -5 -51 -9 -77 -9 -52 0 -123 -24
-130 -45 -4 -8 -36 -15 -96 -20 -69 -5 -94 -11 -104 -24 -19 -26 -26 -29 -123
-41 -106 -13 -151 -26 -162 -46 -5 -9 -42 -20 -97 -29 -73 -11 -94 -19 -110
-38 -17 -20 -33 -26 -95 -31 -42 -4 -86 -15 -100 -24 -37 -25 -120 -52 -157
-52 -32 0 -73 -28 -73 -50 0 -5 -23 -10 -50 -10 -37 0 -64 -8 -104 -30 -29
-17 -79 -35 -112 -41 -32 -6 -63 -16 -69 -23 -15 -18 -110 -56 -141 -56 -16 0
-39 -11 -54 -25 -18 -17 -45 -28 -81 -34 -31 -5 -79 -23 -108 -41 -30 -17 -68
-34 -85 -37 -34 -6 -96 -40 -96 -53 0 -4 -25 -10 -56 -12 -38 -3 -61 -11 -69
-22 -7 -9 -41 -27 -76 -39 -43 -15 -67 -30 -74 -45 -6 -14 -28 -28 -57 -38
-26 -8 -56 -25 -65 -38 -10 -12 -32 -28 -50 -35 -17 -7 -34 -19 -37 -27 -3 -8
-25 -23 -48 -33 -24 -10 -58 -33 -77 -50 -19 -17 -38 -31 -42 -31 -5 0 -24
-15 -43 -32 -44 -43 -120 -98 -134 -98 -6 0 -28 -16 -49 -36 -21 -20 -50 -42
-65 -50 -16 -8 -28 -21 -28 -29 0 -9 -16 -23 -35 -32 -19 -9 -35 -22 -35 -28
0 -6 -15 -19 -32 -30 -81 -47 -199 -148 -388 -329 -14 -13 -35 -29 -47 -35
-13 -6 -23 -18 -23 -27 0 -8 -16 -24 -35 -35 -19 -12 -35 -27 -35 -35 0 -7
-12 -22 -27 -31 -24 -15 -86 -77 -342 -338 -10 -11 -25 -26 -33 -33 -7 -7 -29
-31 -48 -53 -19 -22 -50 -54 -67 -73 -18 -18 -33 -36 -33 -39 0 -4 -25 -33
-57 -65 -31 -31 -69 -75 -85 -96 -15 -22 -37 -46 -48 -53 -11 -8 -20 -20 -20
-28 0 -8 -16 -27 -35 -42 -19 -15 -35 -36 -35 -45 0 -9 -15 -29 -34 -45 -18
-15 -37 -38 -40 -50 -4 -12 -20 -32 -37 -43 -16 -12 -29 -28 -29 -36 0 -8 -16
-31 -35 -51 -19 -20 -35 -42 -35 -49 0 -7 -16 -27 -35 -45 -19 -19 -35 -41
-35 -50 0 -8 -16 -30 -35 -48 -19 -17 -35 -38 -35 -47 0 -8 -16 -31 -35 -51
-19 -20 -35 -45 -35 -55 0 -11 -16 -34 -35 -51 -19 -17 -35 -38 -35 -47 0 -10
-16 -34 -35 -54 -19 -21 -35 -45 -35 -55 0 -10 -16 -35 -35 -55 -19 -21 -35
-48 -35 -60 0 -12 -14 -35 -30 -51 -17 -16 -35 -46 -41 -67 -5 -21 -21 -45
-34 -54 -15 -10 -27 -30 -31 -52 -4 -21 -22 -54 -40 -75 -20 -22 -34 -48 -34
-63 0 -16 -11 -37 -29 -53 -18 -16 -32 -43 -37 -65 -3 -21 -19 -53 -34 -70
-16 -17 -32 -49 -35 -70 -4 -21 -20 -52 -34 -70 -15 -17 -33 -51 -40 -76 -7
-25 -23 -56 -36 -70 -15 -16 -25 -44 -30 -78 -5 -39 -14 -59 -36 -80 -19 -18
-29 -37 -29 -57 0 -36 -30 -104 -53 -124 -10 -7 -17 -28 -17 -46 0 -45 -19
-96 -46 -126 -15 -15 -24 -37 -24 -56 0 -39 -14 -77 -44 -123 -15 -22 -26 -57
-30 -95 -4 -35 -18 -85 -35 -120 -20 -41 -31 -80 -33 -122 -3 -48 -11 -71 -33
-103 -24 -34 -31 -57 -36 -119 -5 -50 -16 -97 -34 -136 -22 -49 -29 -81 -35
-180 -7 -114 -13 -136 -53 -212 -6 -13 -20 -23 -29 -23 -17 0 -18 -69 -18
-1390 0 -1329 1 -1390 18 -1390 12 0 27 -19 46 -57 25 -50 29 -73 33 -168 4
-91 11 -128 39 -211 23 -69 34 -120 34 -160 0 -33 7 -70 15 -84 45 -77 55
-107 55 -170 0 -47 6 -74 20 -98 24 -38 50 -140 50 -193 0 -21 9 -47 20 -62
31 -39 50 -92 50 -138 0 -30 8 -52 26 -76 18 -24 29 -57 39 -114 7 -44 19 -87
28 -97 25 -27 47 -88 47 -128 0 -26 8 -46 29 -70 23 -26 31 -47 37 -95 5 -42
14 -69 31 -89 13 -16 28 -53 35 -87 7 -36 21 -70 38 -89 18 -21 29 -48 34 -82
4 -32 16 -62 35 -85 18 -23 31 -54 35 -84 4 -31 15 -56 33 -75 17 -18 29 -44
34 -78 5 -35 16 -59 32 -74 26 -24 31 -37 41 -97 4 -20 18 -46 31 -59 15 -14
28 -40 32 -63 3 -22 20 -55 39 -79 24 -28 34 -50 34 -73 0 -23 10 -46 35 -75
19 -23 35 -52 35 -65 0 -13 16 -42 35 -65 23 -27 35 -52 35 -71 0 -18 10 -40
25 -55 32 -32 45 -57 45 -87 0 -13 9 -32 21 -43 25 -23 49 -66 49 -90 0 -9 16
-34 35 -55 23 -25 35 -49 35 -67 0 -18 11 -38 30 -57 16 -15 32 -42 36 -59 3
-17 22 -48 40 -69 19 -20 34 -48 34 -61 0 -12 13 -37 30 -54 16 -17 32 -44 36
-59 4 -15 22 -45 40 -66 19 -20 34 -47 34 -60 0 -12 13 -34 29 -49 16 -15 32
-40 36 -55 3 -15 19 -42 36 -60 16 -18 32 -45 35 -60 4 -15 20 -38 35 -51 16
-13 31 -38 35 -58 3 -19 15 -39 26 -45 11 -6 28 -30 38 -53 11 -23 30 -52 44
-65 13 -12 27 -35 31 -49 8 -33 67 -97 175 -191 47 -40 94 -82 105 -92 11 -10
49 -46 85 -80 36 -33 77 -67 92 -75 15 -7 29 -23 33 -34 3 -11 10 -20 15 -20
5 0 26 -17 48 -37 46 -44 129 -112 197 -163 26 -19 62 -49 81 -67 18 -17 42
-34 54 -38 11 -3 20 -12 20 -20 0 -7 12 -21 28 -31 15 -9 38 -29 52 -43 30
-30 186 -147 236 -176 19 -11 34 -25 34 -32 0 -7 9 -17 19 -23 11 -5 41 -28
66 -50 25 -22 52 -40 59 -40 8 0 31 -16 52 -35 21 -19 41 -35 44 -35 4 0 23
-15 43 -32 102 -93 120 -108 132 -108 7 0 32 -15 54 -34 23 -19 50 -38 61 -41
10 -3 22 -14 25 -24 3 -10 17 -23 31 -30 15 -6 46 -27 69 -46 23 -19 47 -35
53 -35 6 0 26 -13 44 -29 18 -15 43 -31 55 -35 12 -4 25 -15 28 -25 3 -10 32
-33 64 -50 32 -17 64 -37 70 -45 6 -8 25 -19 41 -26 17 -7 30 -19 30 -27 0 -8
19 -23 43 -33 23 -10 57 -30 75 -44 18 -13 47 -30 63 -36 16 -7 29 -19 29 -27
0 -8 17 -21 38 -30 20 -8 50 -25 67 -37 16 -11 47 -29 67 -38 21 -9 38 -23 38
-30 0 -12 49 -43 152 -95 26 -13 52 -32 58 -43 9 -18 36 -34 159 -99 14 -7 40
-26 56 -42 17 -15 50 -34 74 -43 25 -8 49 -22 54 -31 4 -9 32 -27 60 -40 86
-41 130 -68 166 -103 18 -17 42 -32 53 -32 25 0 52 -14 82 -45 14 -14 32 -25
41 -25 21 0 78 -29 87 -45 4 -7 19 -16 34 -19 14 -4 38 -18 52 -32 15 -13 45
-29 66 -35 22 -6 52 -23 67 -39 16 -15 45 -31 65 -34 21 -4 47 -19 63 -36 16
-18 43 -33 71 -39 28 -6 53 -20 65 -35 11 -14 36 -29 55 -32 44 -9 72 -23 88
-45 6 -9 27 -21 45 -24 17 -4 51 -20 75 -36 23 -16 55 -31 70 -35 50 -11 82
-26 82 -40 0 -7 10 -16 23 -20 40 -12 110 -46 124 -60 8 -7 30 -16 51 -19 53
-9 82 -22 82 -39 0 -14 33 -28 97 -41 17 -3 38 -16 46 -28 10 -15 32 -26 69
-34 35 -7 65 -21 81 -37 18 -18 37 -26 61 -26 43 0 66 -9 66 -25 0 -15 59 -45
89 -45 24 0 116 -44 126 -60 3 -5 23 -10 43 -10 51 0 82 -10 82 -25 0 -27 31
-45 76 -45 35 0 54 -7 82 -30 27 -21 55 -32 107 -40 55 -9 74 -17 90 -36 14
-18 33 -27 65 -31 42 -5 145 -47 155 -63 2 -4 29 -10 60 -14 68 -8 135 -34
135 -52 0 -11 16 -14 65 -14 53 0 66 -3 75 -19 11 -22 75 -47 142 -56 26 -3
73 -19 105 -35 37 -19 74 -30 100 -30 41 0 50 -5 77 -44 9 -13 29 -20 67 -24
30 -2 57 -11 62 -18 8 -15 108 -54 137 -54 29 0 70 -22 70 -37 0 -16 41 -33
81 -33 21 0 39 -9 57 -30 20 -21 42 -33 79 -39 31 -6 62 -20 78 -36 18 -16 39
-25 61 -25 24 0 42 -9 67 -33 22 -23 47 -36 73 -40 25 -4 53 -18 72 -37 23
-21 42 -30 65 -30 25 0 43 -9 70 -35 20 -19 46 -35 57 -35 28 0 59 -17 87 -47
12 -12 31 -23 41 -23 31 0 82 -21 82 -34 0 -7 44 -34 98 -61 53 -28 113 -62
132 -77 19 -14 53 -31 75 -37 25 -7 44 -19 50 -33 6 -14 29 -29 59 -40 27 -9
58 -26 70 -36 11 -11 31 -23 44 -27 12 -3 26 -14 32 -24 5 -10 39 -33 75 -51
36 -18 65 -36 65 -40 0 -4 14 -13 31 -21 18 -7 42 -23 55 -36 13 -13 40 -31
58 -38 19 -8 47 -26 62 -40 15 -14 31 -25 35 -25 4 0 25 -16 46 -35 21 -19 43
-35 49 -35 12 0 96 -58 149 -104 36 -31 90 -70 129 -93 15 -10 46 -32 67 -50
22 -17 48 -35 59 -38 11 -4 20 -13 20 -20 0 -8 10 -20 23 -26 12 -7 43 -30 68
-53 25 -23 72 -59 104 -81 32 -22 68 -49 79 -61 12 -11 33 -29 49 -39 15 -9
27 -23 27 -30 0 -7 13 -18 29 -24 15 -7 33 -23 39 -37 7 -13 16 -24 22 -24 6
0 26 -15 44 -32 18 -18 46 -44 62 -57 16 -14 63 -57 104 -95 42 -39 96 -89
120 -112 50 -46 308 -315 367 -382 21 -24 55 -59 76 -79 20 -20 37 -41 37 -47
0 -6 16 -24 35 -39 19 -15 35 -35 35 -43 0 -8 11 -19 25 -26 13 -6 31 -25 39
-42 8 -17 28 -44 45 -60 17 -17 31 -34 31 -38 0 -5 16 -24 35 -44 19 -19 35
-41 35 -48 0 -8 12 -21 26 -31 14 -9 30 -30 36 -46 5 -16 19 -34 29 -40 10 -5
28 -26 38 -47 10 -20 31 -48 45 -61 14 -14 26 -33 26 -43 0 -9 16 -32 35 -49
19 -18 35 -40 35 -49 0 -9 16 -33 35 -53 19 -20 35 -45 35 -55 0 -10 16 -35
35 -55 19 -20 35 -45 35 -56 0 -11 16 -36 35 -55 21 -21 35 -45 35 -60 0 -14
10 -33 23 -43 29 -22 47 -55 47 -83 0 -11 11 -31 23 -43 28 -26 47 -59 47 -83
0 -9 16 -34 35 -55 25 -28 35 -48 35 -73 0 -18 7 -39 16 -47 23 -19 54 -84 54
-113 0 -14 9 -31 20 -39 27 -19 50 -66 50 -104 0 -19 10 -43 25 -61 31 -36 45
-74 45 -116 0 -21 8 -40 21 -52 29 -26 49 -75 49 -122 0 -24 6 -45 16 -53 27
-22 44 -66 51 -131 4 -39 16 -83 33 -115 19 -35 30 -75 35 -123 6 -55 13 -78
33 -102 24 -28 27 -41 35 -172 7 -123 12 -149 38 -208 29 -66 29 -68 29 -257
l0 -191 99 0 99 0 12 87 c17 116 8 278 -20 363 -17 50 -24 108 -32 254 -5 106
-16 204 -23 225 -13 33 -14 25 -14 -104 -1 -126 -2 -138 -17 -124 -9 9 -19 48
-25 90 -23 175 -52 352 -74 454 -13 61 -30 144 -38 185 -25 131 -68 312 -92
396 -14 44 -31 113 -40 153 -8 39 -21 84 -29 99 -32 62 -58 198 -65 333 -5
105 -10 141 -22 155 -28 32 -41 64 -49 126 -6 37 -17 69 -29 82 -25 26 -41 69
-41 106 0 18 -9 38 -24 52 -29 26 -46 67 -46 107 0 15 -13 45 -30 67 -16 22
-32 60 -36 84 -4 26 -17 53 -30 65 -26 24 -44 65 -44 99 0 13 -10 31 -21 42
-26 22 -49 74 -49 106 0 14 -13 35 -30 50 -20 17 -32 39 -36 66 -4 26 -17 51
-35 68 -16 15 -32 43 -35 63 -4 20 -22 53 -40 74 -19 20 -34 47 -34 60 0 12
-13 34 -29 50 -16 15 -33 42 -37 60 -3 17 -19 46 -34 64 -16 17 -31 46 -35 63
-4 17 -17 38 -30 46 -13 9 -29 32 -36 52 -6 20 -24 51 -39 67 -16 17 -32 42
-35 58 -4 15 -16 32 -27 38 -11 6 -28 29 -38 52 -10 23 -30 53 -44 66 -14 13
-26 32 -26 42 0 11 -12 29 -26 42 -14 12 -34 38 -45 58 -10 20 -25 39 -34 43
-8 3 -24 26 -35 50 -10 25 -27 49 -38 55 -11 6 -25 23 -31 39 -7 16 -25 39
-42 51 -16 12 -29 30 -29 40 0 10 -16 31 -35 45 -19 15 -35 33 -35 40 0 7 -15
29 -32 49 -77 86 -103 117 -108 130 -3 8 -20 27 -37 42 -18 15 -33 32 -33 38
0 7 -16 25 -35 40 -19 15 -35 32 -35 38 0 5 -31 40 -70 78 -38 37 -70 71 -70
76 0 4 -31 38 -70 74 -38 37 -70 71 -70 77 0 5 -16 19 -35 32 -19 12 -35 29
-35 37 0 8 -5 15 -11 15 -6 0 -58 47 -114 104 -57 57 -110 106 -119 109 -9 4
-21 18 -28 32 -6 14 -15 25 -20 25 -5 0 -26 17 -47 38 -21 20 -46 45 -57 54
-10 9 -25 23 -32 30 -70 68 -161 145 -255 216 -40 30 -75 60 -79 67 -4 7 -21
18 -38 25 -16 7 -30 19 -30 26 0 7 -14 21 -32 30 -17 9 -39 25 -47 35 -19 21
-178 129 -192 129 -5 0 -9 7 -9 15 0 8 -13 21 -29 30 -17 8 -47 31 -68 50 -21
19 -46 35 -56 35 -9 0 -31 14 -49 30 -17 17 -34 30 -39 30 -4 0 -27 18 -50 40
-24 22 -53 40 -64 40 -12 0 -36 13 -55 30 -18 16 -43 33 -54 36 -12 4 -27 16
-35 27 -8 10 -38 30 -67 43 -29 13 -56 29 -61 37 -8 14 -64 46 -155 90 -26 12
-50 29 -53 38 -6 18 -33 32 -92 48 -26 7 -43 18 -43 27 0 8 -17 22 -37 31 -70
30 -103 47 -103 54 0 4 -17 13 -37 20 -20 6 -57 25 -82 40 -25 16 -50 29 -56
29 -6 0 -28 15 -48 34 -24 22 -50 35 -76 39 -23 3 -51 16 -68 31 -15 15 -45
29 -65 32 -22 4 -52 20 -74 40 -26 24 -46 34 -69 34 -20 0 -42 9 -59 25 -14
13 -57 34 -96 45 -38 11 -82 32 -99 45 -16 14 -33 25 -37 25 -28 0 -88 24
-109 44 -14 14 -50 29 -85 36 -33 7 -60 16 -60 20 0 12 -65 40 -92 40 -13 0
-46 14 -73 31 -27 17 -76 38 -109 47 -32 8 -75 25 -94 38 -19 13 -48 24 -65
24 -45 0 -108 22 -115 39 -6 17 -22 31 -34 31 -5 0 -8 -23 -8 -51 0 -45 -2
-50 -17 -44 -10 4 -61 25 -113 45 -102 40 -193 80 -250 110 -19 10 -46 21 -60
25 -43 12 -565 268 -730 357 -120 65 -196 105 -263 141 -82 44 -348 198 -417
242 -19 12 -89 55 -155 95 -188 115 -585 381 -594 399 -5 9 -12 38 -16 64 -6
37 -14 52 -34 64 -14 9 -45 29 -68 44 -23 16 -46 29 -52 29 -6 0 -20 13 -32
29 -12 17 -34 35 -50 41 -15 7 -30 18 -33 25 -2 7 -26 26 -53 41 -56 32 -135
94 -211 165 -29 27 -206 162 -250 191 -14 9 -30 24 -34 32 -5 9 -22 23 -38 31
-17 9 -30 22 -30 30 0 8 -10 20 -22 26 -13 6 -37 26 -53 43 -17 17 -42 40 -55
50 -13 10 -51 44 -85 75 -34 31 -100 90 -146 131 -101 91 -367 357 -464 465
-38 43 -103 112 -142 154 -40 42 -73 79 -73 83 0 4 -31 39 -70 78 -38 39 -70
76 -70 83 0 7 -16 25 -35 40 -19 15 -35 34 -35 42 0 8 -11 21 -23 30 -13 8
-30 27 -38 43 -7 15 -28 42 -46 60 -18 18 -33 39 -33 46 0 8 -12 21 -26 31
-14 9 -30 30 -36 46 -5 16 -19 34 -30 40 -11 6 -28 28 -37 49 -10 22 -30 49
-44 60 -15 12 -27 28 -27 35 0 8 -16 30 -35 49 -19 20 -35 42 -35 51 0 8 -16
32 -35 54 -19 21 -35 45 -35 53 0 8 -16 28 -35 45 -19 17 -35 40 -35 51 0 11
-16 39 -35 62 -19 23 -35 48 -35 56 0 7 -16 29 -35 48 -19 20 -35 45 -35 57 0
12 -16 39 -35 60 -20 22 -35 50 -35 63 0 14 -8 31 -18 38 -26 19 -52 59 -52
82 0 10 -16 36 -35 57 -23 25 -35 49 -35 67 0 17 -9 37 -21 48 -25 23 -49 67
-49 91 0 9 -13 31 -30 48 -19 20 -33 47 -39 78 -5 27 -16 53 -24 60 -19 14
-47 78 -47 105 0 10 -10 27 -21 38 -27 24 -49 74 -49 112 0 17 -10 38 -25 52
-25 24 -45 75 -45 119 0 13 -13 38 -29 56 -21 24 -30 48 -35 88 -4 31 -14 61
-22 68 -26 21 -41 61 -48 124 -5 39 -16 73 -33 98 -17 24 -30 61 -35 98 -5 40
-17 72 -34 95 -21 27 -28 51 -35 119 -6 57 -18 104 -34 140 -17 34 -29 85 -36
142 -8 69 -16 96 -37 127 -24 35 -28 51 -33 151 -3 61 -11 120 -17 132 -26 48
-43 146 -52 291 -8 124 -15 166 -36 225 -26 70 -27 81 -35 392 -5 176 -12 383
-18 460 -5 86 -5 190 0 265 5 69 13 276 18 460 8 325 9 337 35 409 21 61 28
103 35 235 7 107 17 188 31 241 34 126 39 155 40 241 0 72 4 89 31 140 25 48
32 77 38 154 6 70 15 111 35 155 21 46 29 82 33 150 4 77 9 97 35 139 22 38
31 67 35 119 4 49 13 79 30 104 15 22 30 67 38 116 10 53 23 90 39 112 14 18
28 52 32 75 4 25 19 56 35 75 16 18 29 42 29 54 0 31 24 83 49 105 12 11 21
31 21 47 0 38 18 76 47 94 12 9 23 25 23 36 0 26 23 70 49 91 12 10 21 27 21
39 0 27 18 60 45 81 13 10 26 33 29 51 4 19 19 46 36 61 18 15 30 36 30 50 0
15 14 37 35 57 19 19 35 42 35 52 0 10 16 34 35 54 19 20 35 42 35 50 0 8 16
30 35 50 19 20 35 44 35 53 0 9 16 31 35 49 19 17 35 38 35 45 0 8 16 29 35
47 19 19 35 40 35 49 0 8 13 28 30 45 70 71 110 116 110 125 0 5 15 25 33 44
17 19 50 55 72 81 71 84 99 115 168 186 37 38 67 74 67 80 0 5 16 19 35 30 19
12 35 27 35 35 0 8 16 24 35 35 19 12 35 27 35 34 0 7 5 15 11 17 5 2 29 20
52 41 45 40 176 151 216 183 44 35 94 79 127 112 18 17 37 32 42 32 5 0 25 16
45 35 20 19 43 35 51 35 8 0 35 18 60 39 25 22 54 42 65 46 11 3 23 14 26 24
5 17 26 30 156 96 26 13 49 33 51 43 3 12 21 25 44 32 22 7 50 21 64 31 30 22
92 56 178 98 34 17 62 37 62 45 0 17 21 26 60 26 18 0 42 11 62 29 19 17 57
35 87 43 34 8 58 20 65 33 16 30 27 35 73 35 28 0 48 6 60 18 21 22 79 52 100
52 25 0 111 41 117 56 4 10 22 14 60 14 47 0 58 4 71 23 16 26 88 47 155 47
21 0 42 5 45 11 14 22 118 59 167 59 41 0 51 3 55 20 6 24 47 36 156 45 47 3
106 17 145 32 59 22 162 39 265 42 15 1 35 9 45 19 28 28 92 42 198 42 93 1
140 5 289 30 181 29 382 40 767 40 220 0 441 -4 491 -10 51 -5 145 -14 210
-20 64 -6 132 -16 150 -21 17 -6 113 -13 212 -16 171 -5 183 -7 240 -34 50
-23 78 -29 170 -34 105 -6 189 -20 210 -35 19 -14 115 -30 218 -36 70 -5 113
-13 137 -26 19 -10 40 -18 47 -18 7 0 13 -4 13 -10 0 -5 20 -10 44 -10 69 0
144 -18 165 -39 13 -13 39 -21 78 -25 141 -15 263 -46 263 -68 0 -4 26 -8 59
-8 63 0 145 -29 155 -55 4 -11 21 -15 65 -15 33 0 63 -4 66 -10 3 -5 14 -10
23 -10 9 0 40 -12 67 -25 35 -18 67 -25 107 -25 54 0 88 -16 88 -40 0 -12 66
-30 107 -30 17 0 34 -4 37 -9 3 -5 18 -12 33 -16 14 -3 38 -15 51 -26 14 -11
40 -19 61 -19 27 0 43 -7 63 -29 18 -19 41 -30 67 -34 29 -4 50 -15 74 -41 25
-26 43 -36 66 -36 19 0 40 -9 53 -22 24 -24 105 -75 173 -110 22 -11 44 -27
49 -35 4 -8 31 -26 60 -39 60 -29 111 -62 146 -97 14 -13 36 -30 50 -37 52
-26 158 -101 164 -115 3 -8 12 -15 20 -15 8 0 32 -16 53 -36 21 -20 51 -43 68
-51 30 -16 83 -56 120 -92 12 -11 33 -25 48 -32 14 -7 29 -20 32 -31 4 -10 10
-18 15 -18 4 0 30 -19 56 -43 27 -23 61 -50 76 -60 27 -17 45 -31 107 -87 18
-17 46 -37 62 -46 16 -8 29 -21 29 -28 0 -8 16 -23 35 -35 19 -11 35 -26 35
-33 0 -8 16 -22 35 -32 19 -11 35 -25 35 -31 0 -7 12 -20 26 -30 24 -15 320
-300 368 -353 12 -13 67 -71 124 -128 56 -57 102 -108 102 -113 0 -4 16 -19
35 -32 19 -13 35 -28 35 -34 0 -10 15 -27 99 -110 23 -22 41 -45 41 -50 0 -5
14 -23 30 -39 45 -46 110 -122 110 -130 0 -7 32 -42 105 -116 19 -19 35 -42
35 -51 0 -9 12 -24 26 -34 14 -9 32 -32 40 -50 8 -19 22 -39 33 -44 10 -6 24
-24 31 -40 6 -17 23 -37 36 -46 13 -8 30 -31 38 -50 9 -20 22 -38 31 -41 9 -4
24 -23 34 -43 11 -20 31 -47 45 -60 16 -15 26 -35 26 -52 0 -19 10 -34 35 -53
30 -23 35 -33 35 -70 0 -54 13 -66 72 -66 l48 0 0 235 c0 223 -1 235 -19 235
-29 0 -70 70 -83 141 -7 41 -20 73 -35 90 -14 15 -27 48 -34 85 -7 37 -19 68
-34 84 -14 15 -30 51 -38 88 -8 35 -24 74 -37 87 -12 13 -26 45 -31 70 -5 29
-20 60 -39 81 -17 20 -30 46 -30 62 0 27 -6 40 -47 103 -13 19 -23 44 -23 56
0 13 -15 39 -34 59 -23 24 -35 49 -39 76 -3 23 -13 45 -21 50 -20 11 -46 60
-46 86 0 10 -16 35 -35 55 -21 22 -35 46 -35 61 0 16 -12 36 -30 52 -16 15
-32 42 -36 60 -3 18 -19 47 -35 64 -16 17 -32 43 -35 59 -3 16 -21 43 -40 61
-19 17 -34 41 -34 52 0 11 -16 38 -35 59 -19 22 -35 47 -35 57 0 9 -16 30 -35
45 -20 16 -35 37 -35 49 0 11 -16 38 -35 59 -19 22 -35 45 -35 52 0 7 -16 27
-35 46 -19 18 -35 41 -35 51 0 10 -11 25 -25 34 -14 10 -31 29 -38 44 -7 15
-27 42 -44 60 -18 18 -33 39 -33 47 0 7 -13 23 -30 35 -16 12 -33 32 -36 45
-3 13 -21 36 -40 50 -19 14 -34 31 -34 36 0 6 -15 26 -32 44 -33 34 -62 67
-142 160 -78 92 -100 116 -251 269 -82 83 -181 179 -220 213 -144 125 -211
180 -232 192 -13 6 -23 18 -23 27 0 8 -16 22 -35 31 -19 9 -35 20 -35 24 0 9
-142 114 -181 134 -16 9 -29 20 -29 25 0 5 -15 17 -32 26 -18 9 -39 26 -47 37
-8 10 -38 30 -68 43 -29 13 -56 31 -59 39 -3 8 -20 19 -38 25 -17 5 -36 20
-41 32 -7 15 -27 28 -57 38 -26 8 -59 27 -73 43 -14 15 -31 27 -38 27 -7 0
-31 13 -53 29 -22 16 -52 33 -67 36 -15 4 -46 22 -69 41 -25 19 -54 34 -70 34
-15 0 -33 7 -40 16 -36 44 -50 54 -74 54 -29 0 -57 13 -97 46 -17 14 -42 24
-61 24 -20 0 -47 11 -72 29 -21 16 -55 32 -74 36 -19 4 -42 13 -50 19 -30 25
-97 54 -140 61 -25 4 -67 20 -95 36 -27 15 -74 31 -104 35 -40 5 -61 14 -79
33 -17 19 -38 27 -80 32 -79 10 -141 27 -180 50 -20 11 -52 19 -78 19 -66 0
-133 19 -160 46 -20 21 -33 24 -94 24 -47 0 -97 8 -148 24 -42 13 -98 29 -124
36 -36 9 -48 17 -48 31 0 18 -37 19 -1305 19 -1250 0 -1305 -1 -1305 -18z"/>
<path d="M36000 44522 c0 -21 -38 -42 -74 -42 -12 0 -26 -3 -30 -7 -15 -16
-145 -42 -207 -43 -67 0 -138 -21 -151 -45 -5 -8 -42 -16 -98 -20 -59 -5 -106
-14 -133 -28 -52 -25 -104 -38 -182 -44 -35 -2 -65 -10 -71 -18 -19 -25 -104
-55 -156 -55 -41 0 -51 -3 -55 -19 -6 -24 -48 -40 -127 -48 -43 -5 -66 -12
-80 -28 -12 -12 -46 -28 -76 -36 -30 -7 -74 -26 -97 -42 -24 -15 -65 -32 -92
-36 -30 -5 -61 -18 -80 -34 -18 -14 -48 -29 -69 -32 -63 -11 -72 -16 -78 -40
-6 -24 -29 -35 -77 -35 -16 0 -37 -10 -50 -23 -28 -30 -60 -47 -87 -47 -12 0
-36 -15 -54 -34 -17 -18 -42 -37 -56 -41 -14 -4 -41 -18 -60 -31 -19 -13 -50
-28 -67 -35 -18 -6 -33 -17 -33 -24 0 -7 -25 -23 -55 -35 -31 -12 -63 -33 -73
-45 -10 -12 -32 -30 -50 -39 -18 -9 -32 -20 -32 -24 0 -5 -15 -15 -33 -24 -40
-19 -128 -81 -173 -123 -18 -16 -51 -43 -74 -60 -74 -55 -154 -119 -199 -160
-102 -93 -126 -116 -134 -124 -5 -5 -20 -20 -34 -34 -14 -14 -30 -30 -36 -37
-7 -6 -23 -22 -37 -36 -14 -13 -29 -28 -33 -33 -5 -5 -20 -20 -34 -34 -37 -38
-42 -43 -76 -79 -33 -34 -95 -106 -150 -171 -18 -21 -46 -53 -62 -72 -17 -18
-36 -44 -42 -58 -7 -14 -24 -33 -38 -43 -14 -9 -25 -24 -25 -34 0 -10 -15 -31
-33 -47 -19 -15 -39 -43 -47 -61 -7 -18 -21 -37 -32 -43 -10 -5 -26 -28 -34
-49 -9 -21 -27 -46 -40 -55 -13 -8 -24 -24 -24 -35 0 -11 -16 -37 -35 -59 -19
-21 -35 -45 -35 -54 0 -8 -14 -30 -31 -48 -18 -19 -36 -49 -41 -68 -6 -19 -23
-47 -39 -62 -16 -15 -29 -35 -29 -46 0 -22 -36 -83 -49 -83 -5 0 -17 -24 -25
-53 -9 -30 -26 -62 -41 -75 -18 -16 -25 -32 -25 -57 0 -27 -8 -44 -34 -71 -21
-22 -36 -48 -40 -73 -3 -21 -19 -55 -36 -76 -18 -23 -30 -50 -30 -67 0 -33
-12 -60 -46 -101 -14 -17 -24 -42 -24 -60 0 -18 -10 -47 -23 -66 -41 -64 -47
-76 -47 -106 0 -28 -19 -73 -55 -135 -8 -14 -15 -46 -15 -72 0 -38 -6 -54 -30
-81 -23 -27 -32 -49 -39 -101 -5 -37 -21 -90 -36 -117 -19 -37 -28 -74 -34
-139 -7 -74 -13 -95 -35 -125 -22 -28 -28 -50 -33 -108 -3 -46 -15 -95 -33
-137 -22 -52 -30 -92 -39 -199 -9 -105 -17 -144 -36 -180 -19 -39 -25 -72 -33
-186 -7 -115 -13 -148 -32 -185 -21 -40 -24 -65 -31 -218 -4 -96 -10 -190 -13
-210 -3 -20 -11 -96 -16 -167 -6 -72 -17 -166 -25 -209 -22 -113 -22 -1286 0
-1402 22 -121 43 -413 49 -678 7 -298 4 -291 114 -281 45 4 83 13 92 21 12 12
16 63 21 282 5 260 6 269 31 327 22 51 28 84 37 220 8 122 16 178 35 235 18
57 26 112 34 226 8 132 12 157 35 200 19 37 28 74 35 156 8 85 15 115 36 151
18 31 26 58 26 92 0 79 20 177 46 222 13 23 24 58 24 80 1 64 16 121 43 161
17 26 27 57 31 102 4 44 16 84 36 123 18 34 30 73 30 95 0 53 18 110 43 135
14 14 24 41 29 80 5 40 18 75 38 105 20 31 30 58 30 84 0 47 20 96 49 122 12
11 21 31 21 47 0 38 16 76 45 111 14 16 25 42 25 58 0 39 15 77 45 112 16 19
25 42 25 64 0 25 9 44 35 73 19 21 35 48 35 59 0 33 19 76 42 93 11 9 23 34
28 58 7 38 3 49 -46 139 -59 107 -104 223 -137 352 -29 118 -31 415 -3 535 60
259 170 460 351 640 234 235 514 358 840 372 169 7 274 -6 436 -52 134 -39
131 -39 205 26 23 20 51 40 63 44 11 3 21 12 21 20 0 8 8 16 18 19 10 4 49 26
86 51 37 24 76 47 87 50 10 4 19 12 19 19 0 13 41 36 65 36 7 0 32 16 55 35
23 19 46 35 51 35 5 0 26 11 47 25 20 13 53 30 72 36 19 7 48 23 63 35 15 13
47 28 70 35 23 6 51 19 62 29 32 28 56 37 118 45 45 6 63 14 85 36 23 25 35
29 79 29 41 0 54 4 62 19 15 27 62 41 167 51 67 6 106 15 145 35 41 20 75 27
139 31 83 6 138 22 171 51 11 9 59 17 140 23 68 5 176 21 239 36 72 17 161 30
240 34 126 7 175 16 220 40 17 9 97 16 255 22 127 5 282 16 345 26 165 24 800
25 940 0 53 -9 186 -19 300 -23 124 -4 217 -12 235 -19 82 -34 109 -40 215
-46 117 -7 231 -29 281 -56 18 -9 59 -14 113 -14 47 0 87 -4 90 -9 3 -5 18
-12 33 -16 15 -3 33 -15 41 -26 11 -15 25 -19 77 -19 35 0 67 -4 70 -10 3 -5
15 -10 25 -10 10 0 34 -9 53 -20 19 -11 65 -24 104 -29 48 -6 83 -17 109 -35
31 -20 116 -46 151 -46 2 0 15 -12 28 -26 18 -19 39 -27 90 -35 67 -9 125 -32
125 -49 0 -5 17 -12 38 -15 56 -10 92 -26 103 -46 5 -10 26 -21 47 -25 44 -8
92 -31 92 -44 0 -9 38 -22 102 -35 15 -3 29 -13 32 -23 4 -10 27 -26 55 -36
27 -9 64 -28 82 -42 18 -13 38 -24 45 -24 6 0 27 -11 47 -24 19 -13 52 -30 72
-37 21 -8 42 -24 48 -36 5 -12 23 -26 38 -32 16 -6 43 -16 59 -22 17 -7 35
-20 41 -30 5 -11 16 -19 24 -19 8 0 30 -16 49 -35 19 -19 51 -41 71 -49 20 -9
50 -27 66 -40 16 -14 38 -27 49 -31 11 -3 20 -13 20 -20 0 -8 13 -21 28 -29
16 -8 44 -29 63 -47 18 -17 41 -34 50 -38 20 -7 76 -51 127 -98 19 -18 43 -35
53 -38 11 -4 19 -13 19 -21 0 -8 12 -22 28 -32 49 -31 462 -432 462 -449 0 -5
11 -15 24 -22 13 -7 30 -24 37 -37 7 -14 28 -36 46 -50 18 -14 33 -30 33 -37
0 -7 16 -25 35 -40 19 -15 35 -34 35 -42 0 -7 13 -23 29 -35 17 -11 33 -30 37
-42 3 -12 19 -32 35 -45 15 -13 31 -32 34 -43 3 -10 22 -35 41 -54 18 -18 34
-40 34 -48 0 -8 14 -24 30 -36 17 -13 30 -29 30 -37 0 -8 16 -32 35 -54 19
-21 35 -43 35 -49 0 -6 16 -27 35 -46 19 -20 35 -42 35 -50 0 -9 16 -31 35
-50 19 -20 35 -44 35 -55 0 -11 16 -35 35 -52 19 -18 35 -40 35 -50 0 -9 16
-36 35 -59 19 -23 35 -50 35 -59 0 -10 16 -34 35 -54 20 -21 35 -46 35 -60 0
-14 15 -39 35 -60 20 -21 35 -46 35 -60 0 -13 13 -36 30 -52 17 -16 32 -44 36
-64 4 -20 17 -47 29 -61 28 -31 45 -63 45 -86 0 -10 13 -32 30 -49 19 -20 33
-47 39 -78 5 -27 18 -58 29 -70 27 -30 42 -61 42 -88 0 -12 13 -36 30 -55 16
-18 32 -51 35 -71 3 -21 10 -45 16 -53 5 -8 18 -28 29 -45 11 -16 22 -50 26
-75 4 -27 16 -55 30 -71 15 -16 29 -49 37 -87 7 -36 22 -71 35 -85 15 -16 27
-48 36 -99 7 -44 22 -88 35 -106 12 -17 27 -60 33 -94 7 -39 20 -74 34 -91 27
-32 30 -44 39 -136 4 -42 15 -80 31 -107 17 -28 28 -69 35 -129 8 -63 17 -96
35 -123 14 -19 27 -45 30 -57 3 -12 3 -235 1 -496 -4 -469 -4 -475 -30 -585
-21 -90 -27 -147 -33 -305 -5 -161 -11 -217 -36 -329 -21 -96 -31 -174 -34
-270 -5 -122 -8 -141 -34 -195 -23 -47 -30 -81 -36 -155 -4 -70 -13 -110 -31
-150 -18 -40 -29 -89 -39 -179 -10 -100 -17 -131 -35 -155 -16 -21 -26 -57
-35 -118 -9 -69 -17 -94 -38 -119 -18 -21 -26 -42 -26 -68 0 -66 -19 -144 -45
-183 -16 -23 -25 -52 -25 -75 0 -55 -17 -108 -45 -142 -14 -16 -25 -42 -25
-57 0 -45 -17 -97 -45 -134 -17 -24 -25 -47 -25 -76 0 -54 -14 -91 -45 -120
-16 -15 -25 -34 -25 -53 0 -39 -15 -77 -45 -113 -16 -19 -25 -42 -25 -64 0
-19 -6 -50 -14 -68 -10 -25 -13 -57 -9 -115 6 -79 5 -82 -35 -163 -22 -46 -62
-130 -90 -188 -95 -200 -215 -433 -292 -570 -24 -41 -53 -93 -65 -115 -13 -22
-41 -71 -62 -110 -45 -79 -82 -141 -142 -235 -22 -36 -48 -78 -57 -95 -18 -33
-306 -463 -367 -548 -20 -28 -45 -63 -55 -77 -21 -31 -219 -297 -270 -364 -41
-53 -91 -115 -257 -316 -548 -665 -1282 -1379 -1882 -1831 l-108 -82 -5 49 -5
48 -35 -32 c-19 -18 -41 -32 -48 -32 -25 0 -81 -32 -87 -49 -3 -9 -26 -27 -53
-39 -87 -40 -147 -75 -160 -93 -7 -10 -31 -24 -53 -30 -22 -7 -50 -25 -63 -40
-12 -14 -33 -30 -46 -34 -13 -4 -41 -20 -63 -36 -22 -16 -46 -29 -53 -29 -7 0
-31 -18 -54 -40 -23 -22 -46 -40 -52 -40 -5 0 -28 -12 -51 -28 -23 -15 -59
-35 -79 -45 -21 -9 -38 -23 -38 -30 0 -7 -19 -23 -42 -35 -107 -55 -163 -91
-166 -105 -2 -9 -13 -19 -25 -23 -12 -4 -44 -22 -72 -40 -27 -19 -55 -34 -62
-34 -6 0 -26 -16 -44 -35 -19 -19 -38 -35 -43 -35 -5 0 -23 -10 -40 -23 -17
-13 -52 -35 -78 -50 -27 -16 -48 -32 -48 -37 0 -5 -14 -17 -31 -25 -16 -9 -39
-25 -49 -35 -11 -11 -40 -29 -65 -41 -25 -12 -51 -29 -58 -39 -7 -9 -27 -25
-44 -34 -18 -9 -33 -21 -33 -26 0 -5 -15 -17 -32 -26 -63 -32 -177 -109 -177
-120 -1 -7 -17 -19 -36 -28 -19 -9 -35 -21 -35 -25 0 -4 -22 -20 -48 -34 -27
-14 -61 -38 -76 -52 -15 -14 -40 -32 -57 -40 -16 -9 -29 -21 -29 -28 0 -8 -15
-22 -33 -33 -58 -33 -141 -91 -169 -117 -15 -14 -36 -28 -47 -32 -11 -3 -23
-15 -26 -26 -4 -12 -22 -27 -41 -35 -19 -8 -34 -18 -34 -22 0 -4 -14 -16 -31
-26 -36 -21 -142 -101 -181 -136 -94 -85 -190 -160 -203 -160 -6 0 -27 -16
-46 -36 -18 -20 -46 -42 -61 -50 -16 -8 -28 -21 -28 -29 0 -8 -13 -21 -29 -29
-16 -9 -42 -28 -59 -43 -16 -15 -42 -38 -58 -51 -16 -13 -65 -53 -109 -88 -44
-36 -99 -79 -122 -96 -24 -18 -43 -37 -43 -44 0 -6 -13 -17 -30 -24 -16 -7
-36 -23 -45 -36 -9 -14 -27 -30 -41 -36 -13 -6 -24 -17 -24 -24 0 -7 -8 -18
-19 -23 -17 -10 -79 -58 -131 -103 -14 -12 -43 -36 -65 -53 -34 -27 -75 -65
-186 -171 -10 -9 -21 -20 -25 -25 -5 -5 -31 -29 -59 -54 -27 -25 -54 -50 -59
-54 -26 -27 -47 -47 -78 -75 -290 -260 -688 -649 -978 -955 -80 -84 -153 -160
-164 -170 -10 -9 -24 -22 -30 -30 -6 -7 -28 -31 -48 -53 -21 -21 -38 -43 -38
-48 0 -5 -13 -17 -30 -27 -16 -9 -30 -23 -30 -29 0 -7 -15 -24 -32 -39 -18
-15 -36 -36 -40 -47 -4 -10 -21 -26 -38 -36 -16 -9 -30 -25 -30 -34 0 -10 -16
-28 -35 -40 -19 -13 -35 -28 -35 -35 0 -7 -16 -25 -35 -40 -19 -15 -35 -32
-35 -38 0 -5 -17 -27 -37 -48 -21 -21 -53 -52 -70 -71 -18 -18 -33 -38 -33
-44 0 -6 -16 -24 -35 -39 -19 -15 -35 -34 -35 -42 0 -7 -31 -45 -70 -83 -38
-38 -70 -76 -70 -83 0 -8 -16 -26 -35 -41 -19 -14 -35 -32 -35 -39 0 -7 -13
-24 -29 -37 -16 -14 -34 -35 -41 -49 -7 -13 -25 -34 -41 -47 -16 -13 -29 -29
-29 -37 0 -7 -13 -24 -29 -37 -16 -14 -34 -35 -41 -49 -7 -13 -25 -34 -41 -47
-16 -13 -29 -29 -29 -36 0 -12 -14 -30 -101 -124 -17 -18 -35 -46 -40 -62 -6
-16 -21 -35 -33 -44 -13 -8 -28 -28 -35 -44 -7 -16 -23 -35 -37 -42 -13 -8
-24 -20 -24 -28 0 -8 -16 -30 -35 -49 -19 -19 -35 -41 -35 -49 0 -7 -15 -28
-34 -46 -18 -18 -37 -43 -40 -56 -4 -12 -19 -30 -32 -39 -14 -9 -31 -31 -39
-49 -7 -18 -25 -40 -39 -49 -14 -10 -26 -24 -26 -31 0 -8 -15 -31 -34 -51 -18
-21 -36 -50 -40 -65 -3 -15 -20 -36 -36 -48 -17 -12 -30 -28 -30 -36 0 -8 -16
-31 -35 -53 -19 -21 -35 -45 -35 -53 0 -8 -16 -29 -35 -48 -19 -19 -35 -40
-35 -47 0 -8 -16 -30 -35 -50 -19 -20 -35 -42 -35 -50 0 -7 -16 -30 -35 -52
-19 -21 -35 -46 -35 -55 0 -9 -16 -33 -35 -53 -19 -20 -35 -42 -35 -50 0 -7
-16 -30 -35 -52 -19 -21 -35 -46 -35 -55 0 -9 -16 -33 -35 -53 -19 -20 -35
-44 -35 -53 0 -10 -16 -34 -35 -54 -19 -21 -35 -46 -35 -56 0 -11 -16 -35 -35
-54 -20 -21 -35 -45 -35 -59 0 -13 -9 -32 -20 -42 -16 -15 -20 -31 -20 -86 0
-37 -4 -70 -9 -73 -9 -6 -61 -91 -154 -251 -22 -38 -52 -90 -67 -115 -45 -76
-101 -177 -186 -333 -46 -83 -50 -88 -79 -85 -39 4 -85 -45 -85 -91 0 -21 -11
-43 -35 -70 -19 -21 -35 -46 -35 -55 0 -23 -17 -55 -45 -86 -12 -14 -25 -43
-28 -65 -4 -27 -16 -48 -35 -65 -20 -17 -31 -38 -35 -65 -4 -28 -16 -48 -37
-66 -19 -16 -30 -35 -30 -52 0 -36 -19 -74 -45 -91 -17 -11 -24 -27 -27 -67
-4 -43 -11 -57 -36 -78 -18 -16 -32 -40 -36 -61 -4 -19 -18 -47 -33 -62 -20
-21 -28 -43 -34 -88 -5 -47 -14 -68 -38 -95 -24 -27 -31 -45 -31 -76 0 -32 -6
-46 -32 -70 -18 -16 -40 -29 -50 -29 -17 0 -18 -15 -18 -195 l0 -195 49 0 48
0 7 56 c5 45 13 62 37 85 19 18 32 42 36 66 8 50 19 70 42 78 21 6 37 60 32
111 -2 26 4 37 32 58 29 22 35 34 40 79 5 42 13 57 37 77 20 16 30 34 30 51 0
42 20 86 46 104 18 11 24 25 24 49 0 48 8 65 41 82 24 12 29 21 29 51 0 28 8
43 35 69 26 24 35 41 35 64 0 24 9 41 35 64 19 18 35 40 35 50 0 25 19 58 47
79 13 10 23 29 23 43 0 15 13 38 34 57 18 18 39 46 45 64 7 17 19 34 27 37 8
3 23 25 33 49 11 24 26 47 35 50 10 4 23 22 32 42 8 19 25 42 38 50 13 9 30
29 36 46 7 16 22 37 34 47 12 9 28 31 35 48 7 17 23 37 37 44 13 8 24 19 24
26 0 7 16 28 35 47 19 19 35 39 35 45 0 6 16 24 35 39 19 15 35 33 35 38 0 11
46 66 110 132 16 17 30 36 30 42 0 5 16 22 35 37 19 14 35 32 35 40 0 7 16 25
35 40 19 14 35 31 35 37 0 6 32 41 70 78 39 36 70 70 70 75 0 5 14 18 30 29
17 11 32 27 35 35 3 8 18 24 35 35 16 11 30 24 30 28 0 7 133 141 384 385 47
45 90 82 95 82 6 0 11 7 11 15 0 9 16 25 35 36 19 12 35 27 35 35 0 8 16 24
35 35 19 12 35 26 35 33 0 6 13 20 30 29 16 10 42 30 58 45 52 49 163 146 191
167 60 43 136 108 144 121 4 8 21 21 37 29 17 9 30 21 30 29 0 7 16 21 35 32
19 10 35 23 35 29 0 5 19 23 43 38 67 45 107 75 146 108 20 17 46 36 58 42 13
5 25 18 29 29 3 10 18 25 34 33 16 8 33 21 37 28 4 7 41 35 82 62 40 27 87 62
104 78 17 15 43 35 59 43 15 8 28 19 28 24 0 5 45 38 99 74 55 36 103 72 108
79 4 8 19 20 33 27 14 7 34 22 45 32 27 26 113 84 150 102 17 8 43 28 58 45
16 17 35 31 43 31 8 0 17 7 20 15 3 8 26 24 50 36 40 19 83 49 154 109 25 21
42 32 153 98 30 18 58 40 61 48 3 8 21 21 39 29 41 17 135 77 163 104 11 11
36 28 55 36 43 20 125 76 166 115 18 16 42 30 54 30 12 0 39 16 60 35 22 19
46 35 53 35 8 0 21 8 28 18 16 23 50 42 77 42 10 0 38 18 61 40 23 22 46 40
52 40 6 0 25 11 43 24 17 13 49 31 70 40 21 9 48 27 61 41 13 14 34 25 48 25
14 0 40 14 62 35 20 19 40 35 43 35 3 0 26 14 51 30 25 16 61 35 80 42 19 6
47 24 61 40 16 16 37 28 52 28 14 0 39 14 58 31 19 18 48 36 64 42 17 6 49 23
72 39 23 15 46 28 52 28 5 0 22 11 37 25 15 14 52 33 82 41 35 10 56 23 59 34
3 10 22 23 46 30 70 21 87 29 94 47 9 24 23 33 55 33 16 0 42 13 62 30 19 17
55 37 80 44 25 8 60 26 77 40 17 14 34 26 39 26 5 0 31 13 57 28 26 16 64 34
83 41 19 6 51 22 70 35 19 13 46 27 60 31 14 4 38 18 53 31 16 13 49 29 74 35
24 7 47 17 49 24 5 12 35 27 111 55 17 6 33 20 36 30 3 11 17 22 33 25 16 4
39 8 51 11 13 2 36 18 53 34 17 17 41 30 53 30 29 0 87 36 87 54 0 8 12 17 28
21 15 3 47 19 73 34 25 16 56 32 70 36 13 4 42 20 64 34 22 15 57 34 78 44 20
9 37 23 37 31 0 16 21 26 56 26 13 0 41 15 61 33 21 19 53 39 70 45 18 6 48
22 66 36 19 15 39 26 45 26 6 0 25 13 42 30 16 16 48 34 70 40 24 7 48 22 62
40 11 16 34 32 49 35 16 4 32 11 35 17 4 6 35 23 70 39 35 16 64 35 64 42 0
13 40 37 62 37 6 0 30 16 54 35 23 19 47 35 53 35 5 0 25 14 43 31 18 16 45
33 61 36 15 3 44 21 64 39 20 19 45 36 55 40 19 6 48 53 48 78 0 13 53 53 194
146 56 37 148 100 200 137 40 28 44 28 38 -3 -4 -24 -3 -26 19 -19 26 9 79 45
79 55 0 4 12 12 27 19 14 7 38 24 52 37 29 28 126 94 139 94 4 0 27 18 50 39
23 22 51 43 62 46 11 4 20 12 20 20 0 7 16 20 35 29 45 22 128 81 171 123 18
17 42 34 54 38 11 3 20 12 20 18 0 7 19 25 43 40 87 56 127 85 169 121 24 20
58 49 75 64 18 15 43 36 55 47 12 10 61 48 108 84 87 67 105 81 171 141 21 19
54 49 73 65 19 17 53 46 74 65 21 19 54 47 73 62 132 106 239 200 333 294 17
17 41 37 54 43 12 6 22 18 22 27 0 8 16 24 35 35 19 12 35 27 35 35 0 7 13 20
30 29 16 8 34 24 40 35 6 11 24 27 40 35 17 9 30 21 30 28 0 6 16 22 35 35 19
12 35 29 35 37 0 8 4 15 10 15 12 0 389 377 412 412 10 15 26 29 36 32 15 5
42 44 42 60 0 2 -12 1 -27 -2 l-28 -5 31 34 c16 19 66 73 110 120 43 47 142
157 218 245 194 221 178 206 170 165 l-7 -34 36 27 c21 16 37 34 37 42 0 7 16
25 35 40 19 14 35 32 35 39 0 7 13 24 29 38 16 13 36 37 44 54 9 17 27 38 41
47 15 9 26 22 26 29 0 7 16 28 35 47 19 19 35 40 35 47 0 8 15 28 34 46 19 18
37 41 40 53 4 11 17 27 31 34 14 7 28 23 31 34 4 12 22 38 40 59 19 20 34 43
34 50 0 7 16 27 35 44 19 17 35 38 35 46 0 8 12 26 28 39 15 12 33 37 41 55 7
18 24 39 37 48 13 8 24 22 24 30 0 8 15 32 33 52 18 21 39 53 47 71 7 18 21
37 31 43 11 5 25 25 33 44 8 18 26 44 40 56 14 13 26 31 26 41 0 10 15 35 33
55 18 21 39 53 47 71 7 19 23 40 35 48 13 8 25 29 29 45 3 17 19 43 36 59 16
15 30 37 30 49 0 11 15 35 33 54 19 18 37 45 41 61 3 15 20 41 36 58 17 17 30
42 30 56 0 15 13 37 35 58 19 18 35 42 35 53 0 12 15 38 34 58 18 21 36 54 40
74 3 20 19 48 36 64 17 16 30 39 30 52 0 13 15 40 34 60 18 21 36 54 40 74 3
20 19 48 36 64 22 21 30 38 30 62 0 25 9 43 35 69 19 19 35 44 35 55 0 25 15
54 46 92 13 16 24 40 24 53 0 31 13 56 45 88 14 14 25 37 25 51 0 31 16 63 41
85 11 8 23 39 29 70 7 34 19 64 35 80 14 15 29 46 34 74 5 28 19 59 34 74 16
17 29 49 37 85 6 31 22 70 35 85 15 18 26 48 31 82 5 36 15 62 34 84 15 17 30
49 34 71 4 22 20 63 35 90 16 28 31 75 35 106 4 30 16 69 26 85 11 16 24 36
29 44 6 8 13 36 16 62 3 27 18 65 35 90 17 25 30 56 30 75 0 58 21 133 46 162
18 22 24 41 24 75 0 51 18 103 50 143 12 15 20 41 20 62 0 48 23 135 49 186
15 27 21 59 21 105 1 71 18 130 46 161 13 15 20 44 25 102 4 54 16 104 34 147
21 51 29 92 36 190 9 106 14 134 39 186 27 54 30 71 30 160 0 85 5 111 31 184
26 74 32 106 40 245 18 318 44 465 82 465 16 0 17 54 17 985 0 978 0 985 -20
985 -13 0 -20 7 -20 20 0 11 -7 37 -16 58 -17 41 -30 147 -43 362 -8 125 -13
153 -36 205 -22 47 -29 82 -34 160 -5 78 -11 106 -27 130 -28 39 -44 89 -44
134 0 23 -11 52 -30 81 -18 27 -33 65 -36 94 -5 32 -15 57 -29 70 -32 31 -45
60 -45 104 0 25 -6 45 -17 53 -22 19 -53 88 -53 120 0 14 -10 34 -21 45 -25
22 -49 74 -49 104 0 12 -13 38 -30 58 -17 22 -32 55 -36 81 -5 28 -17 55 -35
74 -16 16 -32 46 -35 66 -4 20 -19 51 -35 68 -15 18 -31 50 -35 70 -4 21 -19
52 -34 70 -16 17 -31 46 -35 64 -4 18 -20 45 -35 61 -15 15 -30 42 -34 61 -3
19 -17 44 -31 57 -13 13 -30 39 -36 59 -6 20 -24 50 -39 66 -15 17 -31 44 -34
60 -4 17 -20 43 -36 59 -17 15 -30 36 -30 46 0 10 -16 37 -35 60 -19 23 -35
48 -35 56 0 8 -16 31 -35 53 -19 21 -35 46 -35 54 0 9 -16 32 -35 51 -19 20
-35 42 -35 51 0 8 -16 32 -35 52 -19 20 -35 45 -35 55 0 10 -12 25 -26 35 -15
9 -33 31 -40 49 -7 17 -27 45 -44 62 -16 17 -30 37 -30 46 0 8 -13 24 -30 36
-16 12 -33 32 -36 45 -3 13 -21 36 -40 50 -19 14 -34 34 -34 43 0 9 -16 30
-35 45 -19 15 -35 35 -35 43 0 9 -12 28 -27 44 -16 15 -46 49 -68 76 -22 26
-57 64 -77 84 -21 20 -38 42 -38 47 0 6 -16 23 -35 37 -19 15 -35 33 -35 41 0
7 -16 22 -35 34 -19 11 -35 28 -35 38 0 10 -16 28 -35 41 -19 12 -35 28 -35
35 0 7 -13 21 -30 30 -16 10 -30 22 -30 27 0 4 -41 48 -90 97 -50 48 -100 97
-111 108 -35 35 -40 39 -79 75 -22 19 -49 44 -60 55 -38 37 -42 40 -80 75 -20
19 -46 42 -58 51 -11 9 -21 21 -23 26 -4 9 -87 73 -159 122 -19 13 -38 29 -42
36 -4 7 -21 18 -38 25 -16 7 -30 19 -30 26 0 7 -12 22 -27 31 -16 10 -43 33
-61 51 -18 17 -38 32 -45 32 -7 0 -28 13 -47 29 -19 15 -50 36 -67 45 -18 9
-33 23 -33 30 0 7 -15 20 -32 27 -18 7 -43 26 -56 41 -13 15 -33 30 -45 33
-51 14 -77 28 -77 41 0 7 -9 16 -20 19 -11 4 -41 24 -66 46 -25 22 -56 39 -69
39 -13 0 -32 11 -43 25 -11 13 -32 30 -48 37 -16 7 -40 23 -54 36 -14 12 -42
28 -64 34 -21 7 -44 21 -52 33 -17 26 -55 45 -89 45 -15 0 -31 11 -44 28 -11
16 -37 34 -59 40 -21 7 -59 25 -83 42 -24 16 -50 30 -57 30 -20 0 -76 31 -85
46 -4 8 -16 14 -26 14 -9 0 -35 13 -57 29 -21 16 -62 36 -91 44 -61 18 -95 35
-106 53 -4 7 -22 15 -40 19 -57 12 -97 29 -97 41 0 12 -32 25 -95 39 -16 3
-40 16 -52 27 -12 12 -44 24 -71 29 -26 4 -71 21 -98 37 -28 16 -77 37 -110
47 -32 9 -68 25 -81 35 -12 10 -49 21 -80 25 -86 10 -98 14 -108 38 -8 18 -21
23 -70 28 -38 4 -79 16 -110 34 -33 18 -81 32 -139 41 -49 8 -96 20 -105 28
-27 24 -73 38 -128 37 -32 0 -58 5 -66 14 -26 26 -102 54 -157 58 -80 6 -167
26 -209 47 -24 13 -65 21 -127 24 -99 6 -116 10 -156 40 -21 15 -48 20 -115
23 -49 3 -144 18 -213 34 -69 16 -135 32 -147 34 -15 4 -23 13 -23 25 0 20
-11 20 -1420 20 -1372 0 -1420 -1 -1420 -18z"/>
</g>
</svg>
